<svg width="600" height="354" viewBox="0 0 600 354" fill="none" xmlns="http://www.w3.org/2000/svg">
<style>
    #man_1 , #man_2 , #car {
        transform-origin: center;
        transform-box: fill-box;
    }
    #man_1 , #man_2 {
        animation: translateX 4s ease-in-out infinite;
    }
    #car {
        animation: translateXReverse  4s ease-in-out infinite;
    }
    @keyframes translateXReverse {

        0%,
        100% {
            transform: translateX(-2px);
        }

        50% {
            transform: translateX(2px);
        }
    }

    @keyframes translateX {

        0%,
        100% {
            transform: translateX(2px);
        }

        50% {
            transform: translateX(-2px);
        }
    }

</style>
<g id="&#217;&#134;&#217;&#130;&#217;&#132; &#216;&#167;&#217;&#132;&#216;&#185;&#217;&#129;&#216;&#180; 1" clip-path="url(#clip0)">
<path id="Vector" d="M179.21 141.4H47.87V218.54H179.21V141.4Z" fill="#41961A"/>
<path id="Vector_2" d="M576.16 126.1H425.61V351.75H576.16V126.1Z" fill="#7DAC3E"/>
<path id="Vector_3" d="M359.32 111.54H179.2V351.19H359.32V111.54Z" fill="#7DAC3E"/>
<path id="Vector_4" d="M429.5 31.1699H172.02V148.06H429.5V31.1699Z" fill="#41961A"/>
<path id="Vector_5" d="M309.04 132.95L444.4 4.96997L579.76 132.95H309.04Z" fill="#7DAC3E"/>
<path id="Vector_6" d="M590.73 145.53C589.476 145.526 588.27 145.051 587.35 144.2L444.35 19.8301C398.82 61.2901 345.93 101.22 344.35 102.28C343.273 102.88 342.013 103.062 340.811 102.789C339.609 102.517 338.549 101.81 337.836 100.805C337.124 99.7992 336.807 98.5658 336.948 97.3413C337.089 96.1167 337.677 94.9874 338.6 94.1701C341.88 91.4601 401.53 37.2401 441.01 1.29007C441.931 0.452458 443.13 -0.0117188 444.375 -0.0117188C445.62 -0.0117188 446.819 0.452458 447.74 1.29007L594.11 136.91C594.829 137.595 595.328 138.479 595.543 139.449C595.758 140.419 595.679 141.431 595.316 142.356C594.954 143.281 594.324 144.077 593.507 144.642C592.69 145.207 591.723 145.516 590.73 145.53V145.53Z" fill="#41961A"/>
<path id="Vector_7" d="M449.38 111.54H269.26V351.19H449.38V111.54Z" fill="#A6D367"/>
<path id="Vector_8" d="M269.26 111.53L359.31 26.3899L449.37 111.53H269.26Z" fill="#A6D367"/>
<path id="Vector_9" d="M385.37 139.77V186.15H332.46V140.66C332.452 136.931 333.224 133.242 334.726 129.829C336.227 126.415 338.426 123.354 341.18 120.84C342.047 120.05 342.966 119.318 343.93 118.65C344.862 117.964 345.849 117.355 346.88 116.83C350.73 114.829 355.011 113.799 359.35 113.83C363.684 113.812 367.95 114.907 371.74 117.01C372.804 117.521 373.809 118.144 374.74 118.87C375.611 119.48 376.439 120.148 377.22 120.87C379.797 123.297 381.85 126.226 383.251 129.476C384.653 132.727 385.374 136.23 385.37 139.77V139.77Z" fill="#41961A"/>
<path id="Vector_10" d="M386.25 132.81H331.79L332.63 130.57C334.207 126.37 336.753 122.601 340.06 119.57C340.98 118.725 341.959 117.946 342.99 117.24C343.979 116.512 345.026 115.867 346.12 115.31C350.205 113.185 354.745 112.083 359.35 112.1C363.97 112.075 368.517 113.246 372.55 115.5C373.674 116.053 374.737 116.724 375.72 117.5C376.627 118.144 377.489 118.849 378.3 119.61C381.536 122.65 383.994 126.423 385.47 130.61L386.25 132.81ZM336.71 129.49H381.45C380.125 126.692 378.29 124.166 376.04 122.04C375.318 121.371 374.553 120.75 373.75 120.18C372.906 119.506 371.99 118.926 371.02 118.45C367.455 116.458 363.434 115.425 359.35 115.45C355.279 115.437 351.266 116.419 347.66 118.31C346.702 118.787 345.788 119.349 344.93 119.99C344.005 120.631 343.126 121.336 342.3 122.1C339.998 124.199 338.103 126.704 336.71 129.49V129.49Z" fill="#C7EF86"/>
<path id="Vector_11" d="M410.62 131.17H307.22V186.14H410.62V131.17Z" fill="#41961A"/>
<path id="Vector_12" d="M360.58 131.16H357.26V186.13H360.58V131.16Z" fill="#C7EF86"/>
<path id="Vector_13" d="M408.35 148.05H308.44V149.71H408.35V148.05Z" fill="#C7EF86"/>
<path id="Vector_14" d="M408.35 166.11H308.44V167.77H408.35V166.11Z" fill="#C7EF86"/>
<path id="Vector_15" d="M337.58 131.16H334.26V186.13H337.58V131.16Z" fill="#C7EF86"/>
<path id="Vector_16" d="M383.58 131.16H380.26V186.13H383.58V131.16Z" fill="#C7EF86"/>
<path id="Vector_17" d="M410.61 131.16H407.3V186.13H410.61V131.16Z" fill="#C7EF86"/>
<path id="Vector_18" d="M310.54 131.16H307.22V186.13H310.54V131.16Z" fill="#C7EF86"/>
<path id="Vector_19" d="M410.63 182.83H307.23V186.14H410.63V182.83Z" fill="#C7EF86"/>
<path id="Vector_20" d="M410.63 131.16H307.23V134.47H410.63V131.16Z" fill="#C7EF86"/>
<path id="Vector_21" d="M374.7 118.82L359.08 135.36L343.93 118.65C344.862 117.964 345.849 117.355 346.88 116.83L359.11 130.32L371.74 116.96C372.79 117.473 373.782 118.097 374.7 118.82V118.82Z" fill="#C7EF86"/>
<path id="Vector_22" d="M410.62 241.46H307.22V296.43H410.62V241.46Z" fill="#41961A"/>
<path id="Vector_23" d="M360.58 241.45H357.26V296.42H360.58V241.45Z" fill="#C7EF86"/>
<path id="Vector_24" d="M408.35 258.34H308.44V260H408.35V258.34Z" fill="#C7EF86"/>
<path id="Vector_25" d="M408.35 276.4H308.44V278.06H408.35V276.4Z" fill="#C7EF86"/>
<path id="Vector_26" d="M337.58 241.45H334.26V296.42H337.58V241.45Z" fill="#C7EF86"/>
<path id="Vector_27" d="M383.58 241.45H380.26V296.42H383.58V241.45Z" fill="#C7EF86"/>
<path id="Vector_28" d="M410.61 241.45H407.3V296.42H410.61V241.45Z" fill="#C7EF86"/>
<path id="Vector_29" d="M310.54 241.45H307.22V296.42H310.54V241.45Z" fill="#C7EF86"/>
<path id="Vector_30" d="M410.63 293.12H307.23V296.44H410.63V293.12Z" fill="#C7EF86"/>
<path id="Vector_31" d="M410.63 241.45H307.23V244.76H410.63V241.45Z" fill="#C7EF86"/>
<path id="Vector_32" d="M249.64 241.46H203.81V296.43H249.64V241.46Z" fill="#41961A"/>
<path id="Vector_33" d="M249.64 241.45H246.79V296.42H249.64V241.45Z" fill="#C7EF86"/>
<path id="Vector_34" d="M248.63 258.34H204.35V260H248.63V258.34Z" fill="#C7EF86"/>
<path id="Vector_35" d="M248.63 276.4H204.35V278.06H248.63V276.4Z" fill="#C7EF86"/>
<path id="Vector_36" d="M227.92 241.45H225.07V296.42H227.92V241.45Z" fill="#C7EF86"/>
<path id="Vector_37" d="M206.66 241.45H203.81V296.42H206.66V241.45Z" fill="#C7EF86"/>
<path id="Vector_38" d="M249.65 293.12H203.82V296.44H249.65V293.12Z" fill="#C7EF86"/>
<path id="Vector_39" d="M249.65 241.45H203.82V244.76H249.65V241.45Z" fill="#C7EF86"/>
<path id="Vector_40" d="M249.64 162.73H203.81V217.7H249.64V162.73Z" fill="#41961A"/>
<path id="Vector_41" d="M249.64 162.73H246.79V217.7H249.64V162.73Z" fill="#C7EF86"/>
<path id="Vector_42" d="M248.63 179.61H204.35V181.27H248.63V179.61Z" fill="#C7EF86"/>
<path id="Vector_43" d="M248.63 197.67H204.35V199.33H248.63V197.67Z" fill="#C7EF86"/>
<path id="Vector_44" d="M227.92 162.73H225.07V217.7H227.92V162.73Z" fill="#C7EF86"/>
<path id="Vector_45" d="M206.66 162.73H203.81V217.7H206.66V162.73Z" fill="#C7EF86"/>
<path id="Vector_46" d="M249.65 214.39H203.82V217.71H249.65V214.39Z" fill="#C7EF86"/>
<path id="Vector_47" d="M249.65 162.73H203.82V166.05H249.65V162.73Z" fill="#C7EF86"/>
<path id="Vector_48" d="M534.91 120.56H489.08V175.53H534.91V120.56Z" fill="#41961A"/>
<path id="Vector_49" d="M534.91 120.56H532.06V175.53H534.91V120.56Z" fill="#C7EF86"/>
<path id="Vector_50" d="M533.9 137.44H489.62V139.1H533.9V137.44Z" fill="#C7EF86"/>
<path id="Vector_51" d="M533.9 155.51H489.62V157.17H533.9V155.51Z" fill="#C7EF86"/>
<path id="Vector_52" d="M513.19 120.56H510.34V175.53H513.19V120.56Z" fill="#C7EF86"/>
<path id="Vector_53" d="M491.93 120.56H489.08V175.53H491.93V120.56Z" fill="#C7EF86"/>
<path id="Vector_54" d="M534.91 172.22H489.08V175.53H534.91V172.22Z" fill="#C7EF86"/>
<path id="Vector_55" d="M534.91 120.56H489.08V123.88H534.91V120.56Z" fill="#C7EF86"/>
<path id="Vector_56" d="M256.55 124.53C255.516 124.514 254.512 124.178 253.677 123.567C252.842 122.957 252.216 122.102 251.887 121.121C251.558 120.141 251.541 119.082 251.839 118.091C252.137 117.101 252.735 116.227 253.55 115.59C256.83 112.88 316.48 58.6601 355.96 22.7101C356.88 21.8753 358.078 21.4128 359.32 21.4128C360.562 21.4128 361.76 21.8753 362.68 22.7101L463.24 115.88C464.06 116.809 464.505 118.009 464.491 119.248C464.476 120.487 464.001 121.676 463.159 122.585C462.318 123.495 461.168 124.059 459.934 124.169C458.7 124.278 457.469 123.926 456.48 123.18L358.2 43.4201C315.55 80.1001 260.89 122.64 259.3 123.7C258.484 124.24 257.528 124.528 256.55 124.53V124.53Z" fill="#7DAC3E"/>
<path id="Vector_57" d="M179.2 218.55H55.22V350.29H179.2V218.55Z" fill="#A6D367"/>
<path id="Vector_58" d="M582.44 184.89H449.38V237.8H582.44V184.89Z" fill="#41961A"/>
<path id="Vector_59" d="M501.89 255.75H506.77C509.586 255.75 512.374 256.305 514.975 257.382C517.576 258.459 519.939 260.039 521.93 262.03C523.921 264.021 525.501 266.384 526.578 268.985C527.655 271.586 528.21 274.374 528.21 277.19V337.1H480.21V277.44C480.21 271.689 482.494 266.174 486.559 262.106C490.625 258.039 496.139 255.753 501.89 255.75V255.75Z" fill="#A6D367"/>
<path id="Vector_60" d="M523.64 280.23V281.29H484.76V280.43C484.759 277.979 485.24 275.551 486.178 273.286C487.115 271.021 488.489 268.963 490.222 267.229C491.955 265.495 494.012 264.12 496.277 263.181C498.541 262.243 500.969 261.76 503.42 261.76H505.18C507.605 261.759 510.007 262.236 512.248 263.163C514.489 264.091 516.525 265.452 518.24 267.167C519.954 268.883 521.314 270.92 522.24 273.161C523.167 275.402 523.643 277.805 523.64 280.23V280.23Z" fill="#41961A"/>
<path id="Vector_61" d="M523.65 287.32H484.76V302.95H523.65V287.32Z" fill="#41961A"/>
<path id="Vector_62" d="M523.65 308.1H484.76V333.64H523.65V308.1Z" fill="#41961A"/>
<path id="Vector_63" d="M540.15 336.21H468.26V341.39H540.15V336.21Z" fill="#A6D367"/>
<path id="Vector_64" d="M546.24 341.39H462.18V346.57H546.24V341.39Z" fill="#A6D367"/>
<path id="Vector_65" d="M551.23 346.57H457.18V351.75H551.23V346.57Z" fill="#A6D367"/>
<path id="Vector_66" d="M151.79 242.75H89.14V317.91H151.79V242.75Z" fill="#41961A"/>
<path id="Vector_67" d="M151.79 242.74H147.9V317.9H151.79V242.74Z" fill="#C7EF86"/>
<path id="Vector_68" d="M150.42 265.83H89.88V268.1H150.42V265.83Z" fill="#C7EF86"/>
<path id="Vector_69" d="M150.42 290.52H89.88V292.79H150.42V290.52Z" fill="#C7EF86"/>
<path id="Vector_70" d="M122.09 242.74H118.2V317.9H122.09V242.74Z" fill="#C7EF86"/>
<path id="Vector_71" d="M93.03 242.74H89.14V317.9H93.03V242.74Z" fill="#C7EF86"/>
<path id="Vector_72" d="M151.79 313.37H89.14V317.9H151.79V313.37Z" fill="#C7EF86"/>
<path id="Vector_73" d="M151.79 242.74H89.14V247.27H151.79V242.74Z" fill="#C7EF86"/>
<path id="Vector_74" d="M253 24.5201H254.43C256.09 24.5201 257.682 25.1796 258.856 26.3536C260.03 27.5276 260.69 29.1198 260.69 30.7801V56.3201H246.59V30.9001C246.59 30.0597 246.756 29.2276 247.079 28.4516C247.401 27.6756 247.874 26.9709 248.469 26.3781C249.065 25.7853 249.772 25.316 250.549 24.9971C251.327 24.6782 252.16 24.5161 253 24.5201V24.5201Z" fill="#64B73D"/>
<path id="Vector_75" d="M243.29 21.5201H263.8L253.62 11.8201L243.29 21.5201Z" fill="#41961A"/>
<path id="Vector_76" d="M249.29 24.52H248.38L248.24 21.24H249.49L249.29 24.52Z" fill="#41961A"/>
<path id="Vector_77" d="M258.69 24.52H257.78L257.64 21.24H258.89L258.69 24.52Z" fill="#41961A"/>
<path id="Vector_78" d="M101.13 332.18C101.13 331.18 101.37 311.39 94.6 312.84C87.83 314.29 101.13 332.18 101.13 332.18Z" fill="#82B378"/>
<path id="Vector_79" d="M313.77 319.73C313.89 319 313.53 300.73 307.49 303.05C301.45 305.37 313.77 319.73 313.77 319.73Z" fill="#82B378"/>
<path id="Vector_80" d="M317.4 316.34C317.64 315.98 321.27 306.19 318.61 306.19C315.95 306.19 317.61 315.98 317.61 315.98L317.4 316.34Z" fill="#82B378"/>
<path id="Vector_81" d="M599.19 351.75H0.81C0.362649 351.75 0 352.113 0 352.56C0 353.007 0.362649 353.37 0.81 353.37H599.19C599.637 353.37 600 353.007 600 352.56C600 352.113 599.637 351.75 599.19 351.75Z" fill="#2E3552"/>
<g id="car">
<g id="Group 2">
<path id="Vector_82" d="M351.44 158.65H177.44V305.99H372.39L351.44 158.65Z" fill="#7DAC3E"/>
<g id="Group 1">
<path id="Vector_83" d="M343.82 163.7H146.62V305.99H364.27L343.82 163.7Z" fill="#2B4047"/>
<path id="Vector_84" d="M258.76 305.99H285.58V278.8H258.76V305.99Z" fill="#FFBB01"/>
<path id="Vector_85" d="M284.46 305.99H296.74V278.8H284.46V305.99Z" fill="#FF8321"/>
<path id="Vector_86" d="M257.35 279.17H301.82V252.35H257.35V279.17Z" fill="#FF4929"/>
<path id="Vector_87" d="M300.69 279.17H312.97V252.35H300.69V279.17Z" fill="#F22D10"/>
<path id="Vector_88" d="M66.27 288.63H16.85C13.2878 288.63 10.4 291.518 10.4 295.08V309.82C10.4 313.382 13.2878 316.27 16.85 316.27H66.27C69.8322 316.27 72.72 313.382 72.72 309.82V295.08C72.72 291.518 69.8322 288.63 66.27 288.63Z" fill="#B65615"/>
<path id="Vector_89" d="M263.002 339.662C271.418 328.763 269.405 313.105 258.506 304.69C247.607 296.274 231.949 298.287 223.534 309.186C215.118 320.085 217.131 335.743 228.03 344.158C238.929 352.574 254.587 350.561 263.002 339.662Z" fill="#002B34"/>
<path id="Vector_90" d="M364.026 331.16C367.186 317.731 358.861 304.283 345.431 301.123C332.002 297.963 318.554 306.288 315.394 319.718C312.235 333.147 320.56 346.595 333.989 349.755C347.418 352.915 360.867 344.589 364.026 331.16Z" fill="#002B34"/>
<path id="Vector_91" d="M66.9856 334.951C72.2406 322.195 66.1599 307.594 53.4039 302.339C40.6478 297.084 26.047 303.164 20.7919 315.921C15.5369 328.677 21.6176 343.277 34.3736 348.532C47.1297 353.787 61.7305 347.707 66.9856 334.951Z" fill="#002B34"/>
<path id="Vector_92" d="M31.29 325.4C31.29 322.906 32.0296 320.468 33.4152 318.394C34.8008 316.321 36.7702 314.704 39.0744 313.75C41.3785 312.795 43.914 312.546 46.3601 313.032C48.8062 313.519 51.0531 314.72 52.8166 316.483C54.5802 318.247 55.7811 320.494 56.2677 322.94C56.7543 325.386 56.5045 327.922 55.5501 330.226C54.5957 332.53 52.9794 334.499 50.9057 335.885C48.832 337.27 46.394 338.01 43.9 338.01C42.2437 338.011 40.6033 337.686 39.0728 337.053C37.5423 336.42 36.1517 335.491 34.9804 334.32C33.8092 333.148 32.8804 331.758 32.2472 330.227C31.614 328.697 31.2887 327.056 31.29 325.4V325.4Z" fill="#D36E2A"/>
<path id="Vector_93" d="M31.29 325.4C31.29 322.906 32.0296 320.468 33.4152 318.394C34.8008 316.321 36.7702 314.704 39.0744 313.75C41.3785 312.795 43.914 312.546 46.3601 313.032C48.8062 313.519 51.0531 314.72 52.8166 316.483C54.5802 318.247 55.7811 320.494 56.2677 322.94C56.7543 325.386 56.5045 327.922 55.5501 330.226C54.5957 332.53 52.9794 334.499 50.9057 335.885C48.832 337.27 46.394 338.01 43.9 338.01C42.2437 338.011 40.6033 337.686 39.0728 337.053C37.5423 336.42 36.1517 335.491 34.9804 334.32C33.8092 333.148 32.8804 331.758 32.2472 330.227C31.614 328.697 31.2887 327.056 31.29 325.4V325.4Z" fill="#43646D"/>
<path id="Vector_94" d="M40 325.4C40 324.627 40.2293 323.871 40.659 323.228C41.0886 322.585 41.6992 322.084 42.4137 321.788C43.1282 321.492 43.9143 321.414 44.6728 321.565C45.4313 321.716 46.128 322.088 46.6748 322.635C47.2216 323.182 47.594 323.879 47.7449 324.637C47.8957 325.396 47.8183 326.182 47.5224 326.896C47.2264 327.611 46.7253 328.221 46.0823 328.651C45.4393 329.081 44.6833 329.31 43.91 329.31C43.3965 329.31 42.8881 329.209 42.4137 329.012C41.9393 328.816 41.5083 328.528 41.1452 328.165C40.7821 327.802 40.4941 327.371 40.2976 326.896C40.1011 326.422 40 325.913 40 325.4Z" fill="#002B34"/>
<path id="Vector_95" d="M35.73 332.1C35.728 331.799 35.8157 331.503 35.982 331.252C36.1482 331 36.3855 330.804 36.6637 330.688C36.9418 330.571 37.2483 330.54 37.5441 330.599C37.8398 330.657 38.1116 330.802 38.3248 331.015C38.5379 331.228 38.6829 331.5 38.7412 331.796C38.7996 332.092 38.7686 332.398 38.6523 332.676C38.5361 332.955 38.3397 333.192 38.0882 333.358C37.8367 333.524 37.5415 333.612 37.24 333.61C36.8403 333.607 36.4578 333.448 36.1752 333.165C35.8925 332.882 35.7326 332.5 35.73 332.1V332.1Z" fill="#002B34"/>
<path id="Vector_96" d="M34 320.86C34 320.561 34.0886 320.269 34.2545 320.021C34.4204 319.773 34.6562 319.579 34.9321 319.465C35.2081 319.351 35.5117 319.321 35.8046 319.379C36.0975 319.437 36.3666 319.581 36.5777 319.792C36.7889 320.004 36.9327 320.273 36.991 320.566C37.0492 320.858 37.0193 321.162 36.9051 321.438C36.7908 321.714 36.5972 321.95 36.3489 322.116C36.1006 322.282 35.8086 322.37 35.51 322.37C35.1095 322.37 34.7254 322.211 34.4423 321.928C34.1591 321.645 34 321.261 34 320.86V320.86Z" fill="#002B34"/>
<path id="Vector_97" d="M50.61 320.86C50.608 320.559 50.6957 320.263 50.862 320.012C51.0283 319.76 51.2655 319.564 51.5437 319.448C51.8218 319.331 52.1283 319.3 52.4241 319.359C52.7198 319.417 52.9916 319.562 53.2048 319.775C53.4179 319.988 53.5629 320.26 53.6212 320.556C53.6796 320.852 53.6486 321.158 53.5324 321.436C53.4161 321.714 53.2197 321.952 52.9682 322.118C52.7167 322.284 52.4215 322.372 52.12 322.37C51.7203 322.367 51.3378 322.207 51.0552 321.925C50.7726 321.642 50.6126 321.26 50.61 320.86V320.86Z" fill="#002B34"/>
<path id="Vector_98" d="M49.35 332.1C49.348 331.799 49.4357 331.503 49.602 331.252C49.7682 331 50.0055 330.804 50.2837 330.688C50.5618 330.571 50.8683 330.54 51.1641 330.599C51.4598 330.657 51.7316 330.802 51.9448 331.015C52.1579 331.228 52.3029 331.5 52.3612 331.796C52.4196 332.092 52.3886 332.398 52.2723 332.676C52.1561 332.955 51.9597 333.192 51.7082 333.358C51.4567 333.524 51.1615 333.612 50.86 333.61C50.4603 333.607 50.0778 333.448 49.7952 333.165C49.5125 332.882 49.3526 332.5 49.35 332.1V332.1Z" fill="#002B34"/>
<path id="Vector_99" d="M42.38 315.76C42.38 315.459 42.4691 315.165 42.6362 314.916C42.8032 314.666 43.0406 314.471 43.3183 314.356C43.5961 314.241 43.9017 314.211 44.1965 314.269C44.4914 314.328 44.7622 314.473 44.9748 314.685C45.1874 314.898 45.3321 315.169 45.3908 315.463C45.4494 315.758 45.4193 316.064 45.3043 316.342C45.1893 316.619 44.9944 316.857 44.7445 317.024C44.4945 317.191 44.2006 317.28 43.9 317.28C43.7004 317.28 43.5027 317.241 43.3183 317.164C43.1339 317.088 42.9663 316.976 42.8252 316.835C42.6841 316.694 42.5721 316.526 42.4957 316.342C42.4193 316.157 42.38 315.96 42.38 315.76V315.76Z" fill="#002B34"/>
<path id="Vector_100" d="M231 325.4C231 322.906 231.74 320.468 233.125 318.394C234.511 316.321 236.48 314.704 238.784 313.75C241.089 312.795 243.624 312.546 246.07 313.032C248.516 313.519 250.763 314.72 252.527 316.483C254.29 318.247 255.491 320.494 255.978 322.94C256.464 325.386 256.215 327.922 255.26 330.226C254.306 332.53 252.689 334.499 250.616 335.885C248.542 337.27 246.104 338.01 243.61 338.01C240.266 338.01 237.058 336.681 234.693 334.317C232.329 331.952 231 328.744 231 325.4V325.4Z" fill="#D36E2A"/>
<path id="Vector_101" d="M231 325.4C231 322.906 231.74 320.468 233.125 318.394C234.511 316.321 236.48 314.704 238.784 313.75C241.089 312.795 243.624 312.546 246.07 313.032C248.516 313.519 250.763 314.72 252.527 316.483C254.29 318.247 255.491 320.494 255.978 322.94C256.464 325.386 256.215 327.922 255.26 330.226C254.306 332.53 252.689 334.499 250.616 335.885C248.542 337.27 246.104 338.01 243.61 338.01C240.266 338.01 237.058 336.681 234.693 334.317C232.329 331.952 231 328.744 231 325.4V325.4Z" fill="#43646D"/>
<path id="Vector_102" d="M239.72 325.4C239.72 324.627 239.949 323.871 240.379 323.228C240.809 322.585 241.419 322.084 242.134 321.788C242.848 321.492 243.634 321.414 244.393 321.565C245.151 321.716 245.848 322.088 246.395 322.635C246.942 323.182 247.314 323.879 247.465 324.637C247.616 325.396 247.538 326.182 247.242 326.896C246.946 327.611 246.445 328.221 245.802 328.651C245.159 329.081 244.403 329.31 243.63 329.31C243.117 329.31 242.608 329.209 242.134 329.012C241.659 328.816 241.228 328.528 240.865 328.165C240.502 327.802 240.214 327.371 240.018 326.896C239.821 326.422 239.72 325.913 239.72 325.4Z" fill="#002B34"/>
<path id="Vector_103" d="M236.98 333.61C237.814 333.61 238.49 332.934 238.49 332.1C238.49 331.266 237.814 330.59 236.98 330.59C236.146 330.59 235.47 331.266 235.47 332.1C235.47 332.934 236.146 333.61 236.98 333.61Z" fill="#002B34"/>
<path id="Vector_104" d="M233.7 320.86C233.698 320.559 233.785 320.264 233.951 320.013C234.117 319.762 234.354 319.565 234.631 319.449C234.909 319.332 235.215 319.301 235.51 319.358C235.806 319.416 236.078 319.56 236.291 319.772C236.505 319.984 236.651 320.255 236.71 320.55C236.769 320.845 236.74 321.151 236.625 321.429C236.51 321.708 236.316 321.946 236.065 322.113C235.815 322.281 235.521 322.37 235.22 322.37C234.819 322.37 234.433 322.211 234.149 321.928C233.864 321.646 233.703 321.261 233.7 320.86V320.86Z" fill="#002B34"/>
<path id="Vector_105" d="M250.35 320.86C250.35 320.561 250.439 320.269 250.604 320.021C250.77 319.773 251.006 319.579 251.282 319.465C251.558 319.351 251.862 319.321 252.155 319.379C252.447 319.437 252.717 319.581 252.928 319.792C253.139 320.004 253.283 320.273 253.341 320.566C253.399 320.858 253.369 321.162 253.255 321.438C253.141 321.714 252.947 321.95 252.699 322.116C252.451 322.282 252.159 322.37 251.86 322.37C251.46 322.37 251.075 322.211 250.792 321.928C250.509 321.645 250.35 321.261 250.35 320.86Z" fill="#B65615"/>
<path id="Vector_106" d="M250.6 333.61C251.434 333.61 252.11 332.934 252.11 332.1C252.11 331.266 251.434 330.59 250.6 330.59C249.766 330.59 249.09 331.266 249.09 332.1C249.09 332.934 249.766 333.61 250.6 333.61Z" fill="#002B34"/>
<path id="Vector_107" d="M242.12 315.76C242.12 315.459 242.209 315.165 242.377 314.914C242.544 314.664 242.782 314.469 243.061 314.355C243.339 314.24 243.645 314.21 243.94 314.27C244.235 314.329 244.506 314.475 244.718 314.689C244.931 314.902 245.074 315.174 245.132 315.47C245.19 315.765 245.158 316.071 245.041 316.349C244.925 316.626 244.728 316.863 244.477 317.029C244.226 317.194 243.931 317.282 243.63 317.28C243.229 317.277 242.845 317.116 242.562 316.831C242.279 316.546 242.12 316.161 242.12 315.76V315.76Z" fill="#B65615"/>
<path id="Vector_108" d="M135.47 339.555C143.288 328.189 140.412 312.636 129.045 304.818C117.678 297 102.125 299.876 94.3068 311.243C86.4887 322.61 89.3656 338.163 100.733 345.981C112.1 353.799 127.652 350.922 135.47 339.555Z" fill="#002B34"/>
<path id="Vector_109" d="M43.62 190.5C43.62 190.5 57.18 170.1 72.85 169.88L71.45 192L43.62 190.5Z" fill="#7DAC3E"/>
<path id="Vector_110" d="M123.48 283.91H15L24 210.62C24.7103 204.862 27.5019 199.562 31.849 195.72C36.196 191.878 41.7982 189.758 47.6 189.76H123.48V283.91Z" fill="#41961A"/>
<path id="Vector_111" d="M60.41 239.1H30L34 210.16C34.4062 207.27 35.8456 204.625 38.0519 202.715C40.2581 200.805 43.0817 199.759 46 199.77H61.35L60.41 239.1Z" fill="#0062A9"/>
<path id="Vector_112" d="M58.16 236.94H38.16C37.444 236.946 36.7349 236.799 36.0809 236.507C35.4269 236.216 34.843 235.787 34.369 235.251C33.8949 234.714 33.5416 234.082 33.333 233.397C33.1245 232.712 33.0655 231.99 33.16 231.28L35.82 211.28C36.0963 208.778 37.2734 206.461 39.1318 204.763C40.9902 203.065 43.403 202.1 45.92 202.05H59L58.16 236.94Z" fill="#E3FFD2"/>
<path id="Vector_113" d="M271.06 305.99H62.36L71.67 158.65H258.72L271.06 305.99Z" fill="#7DAC3E"/>
<path id="Vector_114" d="M262.89 300.4H70.03L78.63 164.24H251.49L260.73 274.61L262.89 300.4Z" fill="#41961A"/>
<path id="Vector_115" d="M81.18 283.91H15C9.17 284.3 8.6 287.18 8.6 287.18L2.92 314.57C2.95092 315.047 3.16869 315.494 3.52617 315.812C3.88365 316.13 4.35207 316.295 4.83 316.27H21.48C21.9865 316.231 22.4704 316.044 22.8721 315.733C23.2737 315.422 23.5754 315.001 23.74 314.52C25.0056 312.935 26.4408 311.493 28.02 310.22C32.6915 307.032 38.2461 305.391 43.9 305.53C52.38 305.53 59.9 308.23 64.39 312.35H81.18C83.18 312.35 84.87 311.29 84.87 310V286.26C84.87 284.97 83.21 283.91 81.18 283.91Z" fill="#A6D367"/>
</g>
</g>
<path id="Vector_116" d="M277.76 337.67H256.76C256.311 335.273 255.419 332.98 254.13 330.91C247.78 320.74 232.95 317.64 224.5 316.69C222.448 316.445 220.386 316.305 218.32 316.27H254.39C258.132 316.724 261.734 317.971 264.955 319.928C268.177 321.886 270.943 324.508 273.07 327.62C275.229 330.658 276.818 334.064 277.76 337.67V337.67Z" fill="#078203"/>
<path id="Vector_117" d="M372.39 337.67H351.39C350.889 334.955 349.815 332.378 348.24 330.11C338.67 316.29 313 316.27 313 316.27H349C355.514 317.05 361.502 320.235 365.79 325.2C368.919 328.794 371.178 333.061 372.39 337.67V337.67Z" fill="#078203"/>
<path id="Vector_118" d="M273.09 327.62C273.09 327.62 259.28 324.7 254.15 330.91C247.8 320.74 232.97 317.64 224.52 316.69L224.01 316.27H254.41C258.152 316.724 261.754 317.971 264.975 319.928C268.197 321.886 270.963 324.508 273.09 327.62Z" fill="#004600"/>
<path id="Vector_119" d="M365.83 325.2C365.83 325.2 354.28 324.94 348.26 330.11C338.67 316.29 313 316.27 313 316.27H349C355.528 317.041 361.532 320.226 365.83 325.2V325.2Z" fill="#004600"/>
<path id="Vector_120" d="M371.15 305.99H70.7C67.1543 305.99 64.28 308.864 64.28 312.41V313.86C64.28 317.406 67.1543 320.28 70.7 320.28H371.15C374.696 320.28 377.57 317.406 377.57 313.86V312.41C377.57 308.864 374.696 305.99 371.15 305.99Z" fill="#004600"/>
<path id="Vector_121" d="M84.44 309.58H133C134.83 309.58 136.585 310.307 137.879 311.601C139.173 312.895 139.9 314.65 139.9 316.48V334.32C139.9 336.153 139.172 337.91 137.876 339.206C136.58 340.502 134.823 341.23 132.99 341.23H84.44C82.6074 341.23 80.8498 340.502 79.5539 339.206C78.258 337.91 77.53 336.153 77.53 334.32V316.48C77.5326 314.649 78.2618 312.894 79.5574 311.6C80.853 310.307 82.6091 309.58 84.44 309.58V309.58Z" fill="#004600"/>
<path id="Vector_122" d="M17 224.93C17 224.93 14.29 239.51 14.42 241.88C14.5348 242.875 15.0186 243.791 15.7759 244.446C16.5332 245.102 17.5089 245.449 18.51 245.42L17 224.93Z" fill="#0062A9"/>
<path id="Vector_123" d="M22.47 223.72H21.31C18.8413 223.72 16.84 225.721 16.84 228.19V240.95C16.84 243.419 18.8413 245.42 21.31 245.42H22.47C24.9387 245.42 26.94 243.419 26.94 240.95V228.19C26.94 225.721 24.9387 223.72 22.47 223.72Z" fill="#0062A9"/>
<path id="Vector_124" d="M22.48 224.93H21.65C19.6121 224.93 17.96 226.582 17.96 228.62V240.67C17.96 242.708 19.6121 244.36 21.65 244.36H22.48C24.5179 244.36 26.17 242.708 26.17 240.67V228.62C26.17 226.582 24.5179 224.93 22.48 224.93Z" fill="#E3FFD2"/>
<path id="Vector_125" d="M21.89 224.1C21.7927 224.09 21.7031 224.043 21.6398 223.968C21.5765 223.894 21.5443 223.798 21.55 223.7V217.58C21.549 217.563 21.549 217.547 21.55 217.53C21.661 216.541 22.1491 215.632 22.9126 214.993C23.6762 214.354 24.6566 214.035 25.65 214.1C29 214.2 30.45 214.1 30.46 214.1C30.5085 214.098 30.5568 214.107 30.6018 214.125C30.6468 214.144 30.6876 214.171 30.7214 214.206C30.7553 214.24 30.7815 214.282 30.7985 214.327C30.8155 214.373 30.8228 214.421 30.82 214.47C30.8317 214.566 30.8062 214.663 30.7485 214.742C30.6909 214.82 30.6055 214.873 30.51 214.89C30.45 214.89 29.02 214.99 25.63 214.89C24.8236 214.802 24.0152 215.035 23.3791 215.539C22.743 216.042 22.3303 216.775 22.23 217.58V223.68C22.237 223.73 22.2336 223.781 22.22 223.83C22.2064 223.879 22.183 223.924 22.1511 223.964C22.1192 224.003 22.0796 224.035 22.0347 224.059C21.9898 224.082 21.9405 224.096 21.89 224.1V224.1Z" fill="#0062A9"/>
<path id="Vector_126" d="M57.59 248.54H51.45C51.0363 248.54 50.6395 248.376 50.3469 248.083C50.0544 247.79 49.89 247.394 49.89 246.98V246.98C49.89 246.566 50.0544 246.169 50.3469 245.877C50.6395 245.584 51.0363 245.42 51.45 245.42H57.59C58.0037 245.42 58.4005 245.584 58.6931 245.877C58.9856 246.169 59.15 246.566 59.15 246.98V246.98C59.15 247.394 58.9856 247.79 58.6931 248.083C58.4005 248.376 58.0037 248.54 57.59 248.54V248.54Z" fill="#0062A9"/>
<path id="Vector_127" d="M303.28 305.98H330.1V279.16H303.28V305.98Z" fill="#FFBB01"/>
<path id="Vector_128" d="M328.98 305.98H341.26V279.16H328.98V305.98Z" fill="#FF8321"/>
</g>
<g id="man_1">
<path id="Vector_129" d="M388.62 350.24H374.62C374.778 349.786 375.068 349.39 375.453 349.103C375.838 348.816 376.3 348.651 376.78 348.63C378.94 348.28 382.67 347.02 383.5 344.27C383.528 344.181 383.551 344.091 383.57 344C384.23 341.06 389.04 344.9 389.04 344.9C389.04 344.9 389.04 345.02 389.04 345.22C389.23 346.29 389.51 349.74 388.62 350.24Z" fill="#002B34"/>
<g id="Group 3">
<path id="Vector_130" d="M377.39 271.51C377.39 271.51 378.12 280.62 378.98 291.51C380.15 306.38 381.55 324.65 381.69 328.11C381.93 334.11 382.89 343.73 382.89 343.73C382.89 343.73 385.17 346.02 389.74 345.05C392.349 335.833 394.11 326.397 395 316.86L395.06 316.15C396.14 301.37 397.82 270.25 397.82 270.25L377.39 271.51Z" fill="#41961A"/>
<path id="Vector_131" d="M377.39 271.51C377.39 271.51 378.12 280.62 378.98 291.51L394.98 316.81L395.04 316.1C396.12 301.32 397.8 270.2 397.8 270.2L377.39 271.51Z" fill="#337A0E"/>
<path id="Vector_132" d="M380.73 272.59C380.73 272.59 393.89 305.59 402.54 321.07C411.19 336.55 413.89 340.9 413.89 340.9C413.89 340.9 418.89 338.9 419.3 337.57C419.3 337.57 415.99 307.64 410.2 300.35C406.92 296.22 403.08 283.85 402.9 279.53C402.72 275.21 401.73 266.64 401.73 266.64L380.73 272.59Z" fill="#41961A"/>
<path id="Vector_133" d="M398 221.76C398 221.76 389.1 226.12 384 224.5C384.979 223.356 386.158 222.401 387.48 221.68C387.3 220.68 387.16 219.73 387.08 218.96C386.961 218.038 386.891 217.11 386.87 216.18L390.3 213.43L393.56 210.81C393.412 212.853 393.736 214.903 394.506 216.802C395.276 218.7 396.471 220.397 398 221.76V221.76Z" fill="#FFB27D"/>
<path id="Vector_134" d="M402.73 268.33C402.73 268.88 401.59 269.52 401.07 269.75C397.482 271.47 393.633 272.578 389.68 273.03C384.93 273.52 379.3 272.44 377.37 272.48C377.169 272.476 376.976 272.398 376.83 272.26C376.7 272.16 376.6 266.34 376.7 259.02C376.7 258.72 376.7 258.42 376.7 258.13V258.03C376.7 255.17 376.84 252.17 376.98 249.17C377.26 242.57 377.77 236.22 378.64 232.7C379.566 229.249 381.506 226.156 384.21 223.82L385.98 222.24C387.846 222.654 389.797 222.417 391.51 221.57C393.56 220.57 395.81 219.43 396.16 219.71C398.85 221.71 400.63 226.23 401.6 231.95C402.171 235.541 402.439 239.174 402.4 242.81C402.4 244.23 402.4 245.69 402.29 247.13C401.967 253.309 402.057 259.503 402.56 265.67C402.65 266.81 402.71 267.7 402.73 268.33Z" fill="#045A8E"/>
<path id="Vector_135" d="M402.57 265.67C359.44 265.61 394.62 233.51 394.62 233.51L401.62 231.95C402.191 235.541 402.459 239.174 402.42 242.81C402.42 244.23 402.42 245.69 402.31 247.13C401.983 253.309 402.07 259.503 402.57 265.67V265.67Z" fill="#0062A9"/>
<path id="Vector_136" d="M349.52 265.46H376.34V238.64H349.52V265.46Z" fill="#FFBB01"/>
<path id="Vector_137" d="M375.21 265.46H387.49V238.64H375.21V265.46Z" fill="#FF8321"/>
<path id="Vector_138" d="M372.3 252.44L370.71 251.93C370.569 251.44 370.319 250.989 369.979 250.61C369.638 250.231 369.217 249.934 368.745 249.742C368.273 249.549 367.764 249.466 367.256 249.499C366.748 249.531 366.253 249.679 365.81 249.93C365.81 249.93 364.28 250.74 364.95 251.71C365.476 252.296 365.97 252.911 366.43 253.55C367.35 254.93 368.81 255.55 369.98 255.07H371.3L372.3 252.44Z" fill="#ED975D"/>
<path id="Vector_139" d="M398 221.75C400.831 226.901 402.262 232.704 402.149 238.58C402.037 244.457 400.386 250.201 397.36 255.24C394.12 260.84 369.59 255.51 369.59 255.51C369.59 255.51 368.59 253.79 371.19 251.97C371.19 251.97 387.52 249.2 389.47 248.74C391.2 248.33 390.04 232.45 392.02 227.85C393.164 225.129 395.303 222.948 398 221.75Z" fill="#045A8E"/>
<path id="Vector_140" d="M393.62 213.63C393.62 213.63 391.37 217.79 387.08 218.96C386.961 218.038 386.891 217.11 386.87 216.18L390.3 213.43L393.62 213.63Z" fill="#ED985F"/>
<path id="Vector_141" d="M385.3 216.1C385.3 216.1 393.79 217.52 394.59 212.21C395.39 206.9 397.02 203.52 391.59 202.4C386.16 201.28 384.84 203.14 384.15 204.84C383.46 206.54 383.11 215.55 385.3 216.1Z" fill="#FFB27D"/>
<path id="Vector_142" d="M394.53 212.53C394.411 210.44 393.55 208.462 392.102 206.951C390.653 205.44 388.713 204.496 386.63 204.29C381.33 203.51 381.77 199.67 382.37 198.97C386.063 198.991 389.745 199.356 393.37 200.06C399.57 201.63 395.45 211.47 394.53 212.53Z" fill="#002B34"/>
<path id="Vector_143" d="M419.3 338.68L418.89 338.15L414.21 340.77C414.21 341.66 414.14 342.7 414.21 343.6C414.249 344.215 414.212 344.833 414.1 345.44C414 345.9 413.51 347.88 412.1 348.44C410.45 349.03 410.32 350.3 413.1 350.28H414.56C415.41 350.271 416.235 349.985 416.908 349.465C417.581 348.945 418.066 348.22 418.29 347.4C418.526 346.601 418.913 345.854 419.43 345.2C420.219 344.475 420.858 343.601 421.31 342.63C421.76 340.96 419.3 338.68 419.3 338.68Z" fill="#002B34"/>
</g>
</g>
<g id="man_2">
<path id="Vector_144" d="M531.48 290.5L529.92 290.8C529.075 290.619 528.192 290.765 527.45 291.208C526.708 291.652 526.161 292.36 525.92 293.19C525.92 293.19 525.57 294.5 526.55 294.43C527.53 294.36 527.14 294.25 528.55 294.18C529.15 294.201 529.744 294.051 530.261 293.746C530.778 293.441 531.198 292.995 531.47 292.46L532.24 291.61L531.48 290.5Z" fill="#045A8E"/>
<path id="Vector_145" d="M530.48 291.78C530 290.78 530.06 290.56 530.06 290.56C530.06 290.56 538.98 284.12 539.8 283.48C540.62 282.84 549.16 270.98 549.16 270.98L559.69 272.45C559.69 272.45 545.52 286.45 543.43 288.07C539.98 290.69 531.51 293.02 531.51 293.02C531.066 292.702 530.711 292.275 530.48 291.78V291.78Z" fill="#045A8E"/>
<path id="Vector_146" d="M477 293.32L478.06 294.18C478.06 294.18 480.95 293.18 481.6 296.58C481.6 296.58 481.78 298.04 480.85 298.04C479.92 298.04 480.31 297.88 478.99 297.92C478.423 297.994 477.849 297.86 477.374 297.544C476.898 297.228 476.552 296.751 476.4 296.2L475.77 295.3L477 293.32Z" fill="#045A8E"/>
<path id="Vector_147" d="M476.84 295.16C477.069 294.973 477.256 294.74 477.39 294.477C477.524 294.213 477.603 293.925 477.62 293.63C477.62 293.63 467.86 285.63 466.87 284.99C462.9 281.666 459.149 278.088 455.64 274.28C453.97 272.35 451.91 273.1 449.54 273.78L447.6 274.34C447.061 274.532 446.582 274.863 446.212 275.299C445.842 275.736 445.593 276.262 445.492 276.825C445.391 277.388 445.44 277.968 445.634 278.507C445.829 279.045 446.162 279.522 446.6 279.89C452.03 284.39 461.07 289.45 462.76 290.51C466.95 293.15 475.16 296.29 475.16 296.29C475.79 296.029 476.361 295.645 476.84 295.16V295.16Z" fill="#045A8E"/>
<path id="Vector_148" d="M546.09 298.1C543.91 304.5 536.48 307.51 529.59 306.31L516 303.91L523.64 266.31C523.64 266.31 537.48 263.87 540.05 268.41C542.3 272.41 547.66 287.51 546.65 295.73C546.547 296.538 546.36 297.332 546.09 298.1Z" fill="#078203"/>
<path id="Vector_149" d="M514 268.26C514 268.26 534 262.09 536.43 268.82C537.71 272.4 538.51 286.07 537.43 294.29C536.43 302.29 530.68 306.48 523.62 305.29L511.13 303.1L514 268.26Z" fill="#004600"/>
<path id="Vector_150" d="M516.56 274.1C516.26 274.87 514.65 275.35 512.32 275.62L511.03 275.75C503.18 276.36 489.68 275.1 488.51 274.32C486.89 273.23 482.79 233.11 482.79 233.11C482.79 233.11 493.14 234.51 501.33 235.75C504.13 236.17 506.68 236.57 508.48 236.89C508.69 236.927 508.897 236.977 509.1 237.04C509.781 237.248 510.366 237.691 510.75 238.29C511.82 239.93 511.66 242.78 512.33 246.07C513 249.36 513.82 253.39 514.56 257.41C514.75 258.41 514.94 259.48 515.12 260.49C515.12 260.78 515.22 261.07 515.26 261.35C516.32 267.47 517 272.82 516.56 274.1Z" fill="#015700"/>
<path id="Vector_151" d="M546.09 298.1C543.91 304.5 536.45 307.6 529.57 306.4L522.82 305.22C527.81 302.94 533.55 294.26 546.09 298.1Z" fill="#078203"/>
<path id="Vector_152" d="M534.5 301.1C532.947 302.709 531.025 303.914 528.901 304.611C526.777 305.309 524.514 305.476 522.31 305.1L503 301.69L493.73 300.1L510.13 267.61C510.13 267.61 536.95 269.61 539.59 273.61C540.81 275.5 540.38 283 539.59 290.5C539.179 294.518 537.379 298.267 534.5 301.1V301.1Z" fill="#015700"/>
<path id="Vector_153" d="M534.5 301.1C532.949 302.708 531.029 303.913 528.906 304.61C526.783 305.307 524.522 305.475 522.32 305.1L503 301.73C505.61 300.22 513.7 296.05 521.31 297.64C527.06 298.85 531.69 299.57 534.5 301.1Z" fill="#004600"/>
<path id="Vector_154" d="M519.28 293.75C517.06 299.93 510.28 302.92 504.08 301.83L491.55 299.65L499.21 261.5C499.21 261.5 512.43 259.55 514.74 264.04C516.74 267.98 520.97 282.86 519.92 291.04C519.808 291.964 519.594 292.873 519.28 293.75V293.75Z" fill="#078203"/>
<path id="Vector_155" d="M519.27 293.84C517.05 300.02 510.27 303 504.07 301.92L494.07 300.17C499.29 297.81 507.14 290.1 519.27 293.84Z" fill="#078203"/>
<path id="Vector_156" d="M475.85 297C470.67 296.06 466.85 293.73 465.02 288.8C463.66 285.22 463.55 280.8 463.77 276.99C463.9 274.8 464.17 272.39 464.57 269.74C464.8 268.21 465.08 266.6 465.4 264.91C465.92 262.2 466.55 259.29 467.3 256.16C468.347 251.773 469.62 246.937 471.12 241.65C472.49 236.81 473.68 233.47 474.66 232.83C476.12 231.89 478.82 231.83 480.66 232.01C482.48 232.14 483.73 232.26 485 233.38C486.051 234.337 486.713 235.647 486.86 237.06C487.47 242.15 488.56 251.24 489.68 260.76C489.68 260.76 489.68 260.85 489.68 260.9C489.74 261.45 489.81 262 489.87 262.54C489.875 262.597 489.875 262.653 489.87 262.71C489.873 262.73 489.873 262.75 489.87 262.77C489.87 262.77 489.87 262.77 489.92 262.77L490.38 262.66C494.47 261.66 500.21 260.56 504.38 261.03C506.55 261.28 508.92 262.03 509.65 264.03C511.23 268.46 513.65 282.17 512.65 289.76C511.65 297.35 504.65 301.38 497.89 300.71C497.49 300.71 497.13 300.71 496.8 300.64L475.85 297Z" fill="#004600"/>
<path id="Vector_157" d="M483.86 263.31C483.86 263.31 482 235.98 481.91 233.7C481.924 233.321 481.811 232.949 481.588 232.642C481.365 232.336 481.045 232.113 480.68 232.01C481.83 232.09 482.68 232.23 482.68 232.23C483.81 232.47 484.833 233.069 485.595 233.938C486.358 234.806 486.819 235.898 486.91 237.05C487.57 242.48 488.81 252.58 490.02 262.78L483.86 263.31Z" fill="#078203"/>
<path id="Vector_158" d="M488 344.27C488.883 344.828 489.875 345.192 490.909 345.337C491.944 345.482 492.998 345.404 494 345.11C494 345.11 496.92 344.44 497.57 345.9C497.57 345.9 493.08 348.19 491.94 348.81C491.081 349.314 490.283 349.915 489.56 350.6C489.441 350.707 489.3 350.789 489.148 350.841C488.996 350.892 488.835 350.912 488.675 350.899C488.515 350.885 488.359 350.84 488.217 350.764C488.075 350.689 487.95 350.585 487.85 350.46L487.18 349.6C486.49 348.66 484.88 345.6 484.88 345.6L488 344.27Z" fill="#002B34"/>
<path id="Vector_159" d="M489.38 343.37C489.38 343.37 487.93 346.7 484.6 346.09C480.458 342.617 476.627 338.789 473.15 334.65C471.728 332.955 470.531 331.082 469.59 329.08C466.49 321.92 458.15 311.25 452.85 305.84L466.12 301.04C466.12 301.04 470.37 309.59 476.03 320.09C480.1 327.66 484.91 336.24 489.38 343.37Z" fill="#41961A"/>
<path id="Vector_160" d="M476 320.1L473.12 334.66C471.698 332.965 470.501 331.092 469.56 329.09C466.46 321.93 458.12 311.26 452.82 305.85L466.09 301.05C466.09 301.05 470.37 309.59 476 320.1Z" fill="#337A0E"/>
<path id="Vector_161" d="M465.18 346.21C465.18 346.21 465.03 348.86 468.25 349.21C468.25 349.21 470.19 349.21 470.2 350.94H460.74C460.522 350.247 460.407 349.526 460.4 348.8C460.592 347.41 460.958 346.049 461.49 344.75L465.18 346.21Z" fill="#002B34"/>
<path id="Vector_162" d="M461.76 301.04C461.76 301.04 467.68 307.53 471.43 319.24C473.43 325.61 467.69 341.62 466.56 347.18C464.359 347.357 462.145 347.123 460.03 346.49C459.935 339.668 460.386 332.85 461.38 326.1C462.24 321.1 453.59 315.5 449.81 306.54C447.24 300.45 450.37 300.54 454.21 300.41L461.76 301.04Z" fill="#41961A"/>
<path id="Vector_163" d="M454.94 272.1C451.65 273.96 444.94 272.24 444.94 272.24C445.8 271.086 446.382 269.75 446.642 268.335C446.902 266.92 446.833 265.464 446.44 264.08L449.02 265.39L451.79 266.8C451.937 267.624 452.041 268.455 452.1 269.29C452.1 269.7 452.16 270.16 452.18 270.66C453.18 270.967 454.116 271.455 454.94 272.1V272.1Z" fill="#FFB07B"/>
<path id="Vector_164" d="M467 300.7C467 301.28 466.34 301.56 466.19 301.58C464.87 301.83 461.19 303.27 457.83 303.58C455.054 303.821 452.258 303.632 449.54 303.02C449.16 302.94 448.27 302.7 448.21 302.34C448.15 301.98 437.15 279.96 445.68 270.52C445.88 270.3 447.57 270.69 449.11 271.06C450.408 271.369 451.77 271.257 453 270.74L454.45 271.5C456.22 272.5 459.58 276 459.97 278.76C460.17 280.16 460.97 281.2 461.2 282.43C461.29 282.89 461.38 283.33 461.47 283.77C461.637 284.623 461.817 285.433 462.01 286.2C462.51 288.28 463.01 290.08 463.56 291.63C464.11 293.18 464.65 294.63 465.14 295.79C465.77 297.27 466.3 298.38 466.63 299.23C466.843 299.693 466.968 300.191 467 300.7V300.7Z" fill="#0062A9"/>
<path id="Vector_165" d="M466.63 299.25C457.363 294.849 449.968 287.29 445.77 277.93C445.77 277.93 458.36 282.58 461.47 283.79C461.637 284.643 461.817 285.453 462.01 286.22C462.51 288.3 463.01 290.1 463.56 291.65C464.11 293.2 464.65 294.65 465.14 295.81C465.77 297.29 466.3 298.4 466.63 299.25Z" fill="#045A8E"/>
<path id="Vector_166" d="M475.7 295.02L477.04 295.51C477.389 295.252 477.792 295.076 478.219 294.996C478.646 294.917 479.085 294.935 479.504 295.049C479.923 295.164 480.31 295.372 480.637 295.658C480.963 295.944 481.221 296.3 481.39 296.7C481.39 296.7 481.99 298.05 481.04 298.34C480.09 298.63 480.43 298.34 479.04 298.8C478.497 299.057 477.881 299.114 477.299 298.963C476.718 298.811 476.208 298.459 475.86 297.97L474.95 297.3L475.7 295.02Z" fill="#ED975D"/>
<path id="Vector_167" d="M476.8 296.92L477.52 295.04C477.52 295.04 467.4 286.79 466.37 286.04C465.67 285.56 458.68 280.33 455.27 276.26C454.44 275.267 453.356 274.519 452.133 274.096C450.911 273.673 449.596 273.592 448.33 273.86L446.2 274.3C445.624 274.423 445.093 274.704 444.668 275.112C444.243 275.52 443.94 276.039 443.795 276.61C443.649 277.181 443.666 277.782 443.844 278.344C444.021 278.905 444.353 279.406 444.8 279.79C450.4 284.59 459.85 290.17 461.61 291.32C465.99 294.2 475.66 298.23 475.66 298.23C476.185 297.945 476.59 297.48 476.8 296.92V296.92Z" fill="#0062A9"/>
<path id="Vector_168" d="M452.07 269.24C451.052 269.244 450.045 269.022 449.122 268.592C448.199 268.161 447.382 267.533 446.73 266.75C447.507 266.32 448.262 265.849 448.99 265.34L451.76 266.75C451.908 267.574 452.011 268.405 452.07 269.24Z" fill="#EA8E50"/>
<path id="Vector_169" d="M453.45 265.92C453.45 265.92 448.54 269.44 446.4 266.35C444.26 263.26 442.18 261.64 445.22 259.26C448.26 256.88 449.69 257.64 450.66 258.49C451.63 259.34 454.67 264.92 453.45 265.92Z" fill="#FFB07B"/>
<path id="Vector_170" d="M451.18 255.71C451.075 255.021 450.88 254.349 450.6 253.71C450.6 253.71 450.3 254.99 447.97 254.81C445.64 254.63 441.97 255.04 440.72 257.7C440.638 257.868 440.568 258.042 440.51 258.22C440.36 257.743 440.266 257.249 440.23 256.75C439.983 257.589 439.983 258.481 440.23 259.32V259.32C440.235 259.36 440.235 259.4 440.23 259.44C439.804 259.97 439.485 260.578 439.29 261.23C439.47 260.868 439.781 260.589 440.16 260.45C440.16 262.52 440.99 264.54 442.46 265.14C444.6 266.02 444.59 265.35 446.75 266.78C446.75 266.78 447.33 266.06 446.93 265.58C446.53 265.1 445.04 264.39 445.88 263.69C446.72 262.99 447.02 263.78 447.33 263.29C447.64 262.8 446.1 261.4 448.08 260.09C450.06 258.78 451.35 256.89 451.18 255.71Z" fill="#002B34"/>
<path id="Vector_171" d="M583.35 343.1C583.35 343.1 585 344.63 584.68 345.71C584.36 346.79 582.87 347.52 582.68 348.85C582.49 350.18 581.68 350.85 580.95 350.85H577.5C577.5 350.85 576.96 349.92 578.25 349.64C579.54 349.36 580.02 347.8 579.94 346.35C579.907 345.222 579.947 344.093 580.06 342.97L582.8 342.33L583.35 343.1Z" fill="#002B34"/>
<path id="Vector_172" d="M562.8 350.83C562.734 350.839 562.666 350.839 562.6 350.83H553.45C553.541 350.51 553.732 350.227 553.994 350.022C554.256 349.817 554.577 349.701 554.91 349.69C556.35 349.46 558.85 348.62 559.41 346.77C559.41 346.72 559.41 346.65 559.46 346.59C559.9 344.59 563.12 347.2 563.12 347.2C563.12 347.2 563.12 347.28 563.12 347.41C563.21 348.18 563.41 350.52 562.8 350.83Z" fill="#002B34"/>
<path id="Vector_173" d="M555.29 298.1C555.29 298.1 555.78 304.19 556.36 311.52C557.14 321.52 558.08 333.71 558.17 336.03C558.33 340.03 558.97 346.49 558.97 346.49C558.97 346.49 560.5 348.02 563.56 347.37C565.3 341.19 566.471 334.863 567.06 328.47C567.06 328.31 567.06 328.15 567.06 327.98C567.78 318.09 568.91 297.25 568.91 297.25L555.29 298.1Z" fill="#41961A"/>
<path id="Vector_174" d="M555.29 298.1C555.29 298.1 555.78 304.19 556.36 311.52L567.06 328.47C567.06 328.31 567.06 328.15 567.06 327.98C567.78 318.09 568.91 297.25 568.91 297.25L555.29 298.1Z" fill="#337A0E"/>
<path id="Vector_175" d="M557.53 298.83C557.53 298.83 566.34 320.91 572.13 331.29C577.92 341.67 579.73 344.57 579.73 344.57C579.73 344.57 583.05 343.24 583.35 342.33C583.35 342.33 581.14 322.33 577.26 317.41C575.06 314.65 572.49 306.41 572.37 303.48C572.25 300.55 571.58 294.85 571.58 294.85L557.53 298.83Z" fill="#41961A"/>
<path id="Vector_176" d="M553.64 264.1C553.64 264.1 550.05 270.43 546.54 271.25C546.634 270.006 546.974 268.792 547.54 267.68L546.61 266.54C546.146 265.956 545.712 265.349 545.31 264.72L546.5 261.51L547.31 259.34C547.67 259.989 548.095 260.599 548.58 261.16C549.871 262.701 551.662 263.742 553.64 264.1V264.1Z" fill="#FFB27D"/>
<path id="Vector_177" d="M548.58 261.1C548.667 262.089 548.533 263.085 548.187 264.016C547.841 264.947 547.292 265.788 546.58 266.48C546.116 265.896 545.682 265.289 545.28 264.66L546.47 261.45C547.15 261.222 547.863 261.104 548.58 261.1V261.1Z" fill="#ED975D"/>
<path id="Vector_178" d="M544.36 265.1C544.36 265.1 549.73 263.01 548.36 259.69C546.99 256.37 546.78 253.85 543.3 255.05C539.82 256.25 539.67 257.78 539.85 259C540.03 260.22 542.93 265.6 544.36 265.1Z" fill="#FFB27D"/>
<path id="Vector_179" d="M572.11 296.52C569.94 299.63 553.74 303.79 553.93 301.64C554.066 300.223 554.066 298.797 553.93 297.38C553.93 296.92 553.83 296.43 553.76 295.92C553.177 292.179 551.97 288.562 550.19 285.22C550.03 284.91 549.86 284.59 549.68 284.27C548.793 282.651 548.04 280.962 547.43 279.22C546.31 275.98 545.86 272.88 546.43 270.85C549.82 269.28 551.13 263.21 551.13 263.21C551.13 263.21 562.68 265.28 569.13 280.68C569.15 280.65 574 293.81 572.11 296.52Z" fill="#0062A9"/>
<path id="Vector_180" d="M553.93 297.38C553.93 296.92 553.83 296.43 553.76 295.92C553.177 292.179 551.97 288.562 550.19 285.22C550.381 283.481 550.875 281.789 551.65 280.22C553.95 276.77 555.29 276.22 555.29 276.22C555.29 276.22 558.75 290.8 553.93 297.38Z" fill="#045A8E"/>
<path id="Vector_181" d="M549.15 253.55C549.15 253.48 549.3 253.4 549.56 253.31C549.382 253.268 549.198 253.268 549.02 253.31C548.937 253.046 548.78 252.811 548.567 252.633C548.355 252.456 548.095 252.344 547.82 252.31C547.941 252.349 548.052 252.415 548.145 252.501C548.238 252.587 548.311 252.693 548.36 252.81C547.36 252.22 545.67 252.04 541.31 253.49C535.56 255.41 538.43 258.74 539.31 259.01C540.19 259.28 541.79 257.56 543.23 257.33C544.67 257.1 545.45 259.1 546 259.27C546.55 259.44 546.24 258.98 546.81 258.52C547.38 258.06 547.72 259.14 547.71 259.89C547.7 260.64 548.82 261.37 548.82 261.37L549.48 260.16C550.13 258.95 549.95 254.57 549.33 253.78L549.15 253.55Z" fill="#002B34"/>
<path id="Vector_182" d="M535.1 294.1C534.281 294.049 533.459 294.049 532.64 294.1C531.942 294.375 531.296 294.767 530.73 295.26C530.73 295.39 530.82 295.48 531.09 295.45C531.36 295.42 532.25 295.17 532.21 295.28C532.17 295.39 529.67 296.33 529.72 296.86C529.77 297.39 531.35 298.12 532.56 297.98C533.77 297.84 535.92 296.14 536.09 296.03C536.26 295.92 535.1 294.1 535.1 294.1Z" fill="#ED975D"/>
<path id="Vector_183" d="M535.12 295.1C534.48 294.1 534.94 293.59 534.94 293.59C534.94 293.59 544.81 285.86 545.59 285.08C546.37 284.3 549.94 271.87 549.94 271.87C549.94 271.87 551.18 266.87 554.07 266.28C555.086 266.083 556.137 266.189 557.093 266.584C558.049 266.978 558.869 267.644 559.45 268.5C560.103 269.349 560.486 270.375 560.55 271.445C560.614 272.514 560.357 273.578 559.81 274.5C557.29 278.75 552.2 287.18 550.72 288.62C547.42 291.82 536.36 296.3 536.36 296.3C535.86 296 535.436 295.59 535.12 295.1Z" fill="#0062A9"/>
</g>
</g>
<defs>
<clipPath id="clip0">
<rect width="600" height="353.37" fill="white"/>
</clipPath>
</defs>
</svg>
