<svg width="675" height="633" viewBox="0 0 675 633" fill="none" xmlns="http://www.w3.org/2000/svg">
<path d="M230.3 28.1C203.4 47.6 182 91.3 174.9 130.5C171.2 150.8 162.3 200.1 189.5 235.8C216.3 271 250.2 256.2 287.7 290.3C323.4 322.7 313.4 354.9 336.5 401.3C370.9 470.7 461 535.5 537.3 520.8C622.8 504.3 679.9 390 674.2 300.2C661.3 98.9 329.5 -44.1 230.3 28.1Z" fill="#0062B0"/>
<path d="M168 246.9C167.6 253.6 161.8 258.6 155.1 258.2C148.4 257.8 143.4 252 143.8 245.3C144.2 238.6 150 233.6 156.7 234C163.4 234.5 168.4 240.2 168 246.9Z" fill="#0062B0"/>
<path d="M299.2 419.5L396.8 619.9" stroke="#0062B0" stroke-width="25" stroke-miterlimit="10" stroke-linecap="round"/>
<path d="M61.1 419.5L158.7 619.9" stroke="#0062B0" stroke-width="25" stroke-miterlimit="10" stroke-linecap="round"/>
<path d="M13.1 49.3999L84.9 196.8" stroke="#0062B0" stroke-width="25" stroke-miterlimit="10" stroke-linecap="round"/>
<path d="M227.3 359.1L324.9 559.5" stroke="#0062B0" stroke-width="25" stroke-miterlimit="10" stroke-linecap="round"/>
<path d="M41.7 13.2L139.4 213.6" stroke="#0062B0" stroke-width="25" stroke-miterlimit="10" stroke-linecap="round"/>
</svg>
