<svg width="238" height="190" viewBox="0 0 238 190" fill="none" xmlns="http://www.w3.org/2000/svg">
<path d="M161.78 71.98C167.87 71.98 173.96 71.98 180.05 71.98C189.36 72.07 192.72 75.59 192.43 84.98C192.35 87.86 192.03 90.73 191.71 93.6C191.35 96.89 192.66 98.74 195.98 99.32C210.65 101.89 219.07 110.63 221.84 125.22C222.18 126.99 224.46 128.37 225.84 129.96C226.98 131.3 229.01 132.72 228.94 134.02C228.85 135.68 227.33 137.54 225.94 138.79C223.99 140.56 221.48 141.71 219.41 143.38C215.72 146.38 210.41 145.44 209.9 141.38C208.22 127.15 192.76 117.38 176.42 125.14C170 128.2 165.42 132.97 163.34 139.72C162.07 143.72 159.88 145.34 155.64 145.16C149.72 144.92 143.79 145.16 137.86 145.32C133.33 145.42 131.6 143.32 131.94 138.81C133.17 122.36 134.22 105.89 135.35 89.43C135.63 85.27 135.99 81.12 136.2 76.96C136.37 73.44 137.92 71.79 141.61 71.87C148.34 72.03 155.07 71.92 161.81 71.92L161.78 71.98ZM163.59 99.04H170.79C179.84 99.1 179.85 99.09 180.06 90.09C180.06 89.45 180.06 88.81 180.06 88.17C179.76 83.92 177.46 81.82 173.21 81.8C168.41 81.8 163.61 81.74 158.82 81.65C147.18 81.46 147.65 80.09 146.36 93.98C146.04 97.47 147.75 99.06 151.1 99.08C155.27 99.06 159.44 99.04 163.59 99.04Z" fill="#7DAC3E"/>
<path d="M168.75 147.35C168.75 138.05 177.75 129.4 187.2 129.48C196.12 129.56 202.99 135.99 203 144.26C203 154.62 194.39 162.91 183.7 162.82C181.694 162.814 179.71 162.406 177.865 161.62C176.019 160.834 174.35 159.686 172.956 158.244C171.562 156.802 170.472 155.094 169.75 153.223C169.027 151.352 168.687 149.355 168.75 147.35ZM184.59 155.51C190.59 155.43 195.31 151.02 195.29 145.51C195.313 144.347 195.095 143.191 194.648 142.116C194.201 141.042 193.536 140.072 192.694 139.268C191.853 138.464 190.853 137.844 189.759 137.447C188.666 137.049 187.501 136.884 186.34 136.96C180.78 137.15 176.05 141.84 176.18 147.04C176.31 152.24 179.66 155.57 184.59 155.51Z" fill="#7DAC3E"/>
<path d="M69.3 162.86C59.89 162.86 52.81 156.23 52.67 147.28C52.67 144.911 53.1375 142.565 54.0459 140.378C54.9542 138.19 56.2855 136.203 57.9633 134.531C59.6411 132.858 61.6325 131.534 63.8233 130.633C66.0141 129.732 68.3612 129.272 70.73 129.28C79.73 129.28 87.07 136.18 87.17 144.71C87.1898 147.075 86.7431 149.422 85.8555 151.614C84.9679 153.807 83.6568 155.803 81.9971 157.489C80.3374 159.175 78.3618 160.517 76.1831 161.438C74.0045 162.36 71.6655 162.843 69.3 162.86V162.86ZM79.15 145.79C79.189 144.631 78.9939 143.476 78.5764 142.394C78.159 141.311 77.5277 140.325 76.7202 139.492C75.9128 138.659 74.9459 137.998 73.8771 137.548C72.8084 137.097 71.6598 136.867 70.5 136.87C69.2273 136.808 67.9552 137.002 66.7587 137.44C65.5621 137.878 64.4655 138.551 63.5334 139.42C62.6013 140.288 61.8526 141.335 61.3316 142.498C60.8107 143.661 60.5279 144.916 60.5 146.19C60.43 151.71 63.93 155.58 69.09 155.69C70.4079 155.728 71.7198 155.499 72.9469 155.017C74.174 154.535 75.2909 153.809 76.2306 152.885C77.1703 151.96 77.9134 150.855 78.415 149.635C78.9167 148.416 79.1667 147.108 79.15 145.79V145.79Z" fill="#0062A9"/>
<path d="M144.72 53.9201L143.06 52.55L142.94 52.4501C140.45 50.4001 137.94 48.4501 135.38 46.4501L135.31 46.4001L77.15 0.0500488L75.48 1.19006L42.88 23.1901L41.94 23.8301V11.7401H22.21V37.3401C21.9924 38.4241 21.5753 39.4583 20.98 40.39L7.19001 51.2301L7.1 51.3101C5.59 52.4301 4.1 53.5601 2.59 54.7101C2.18326 55.0078 1.80497 55.3425 1.46 55.7101C-0.480001 57.8801 -0.419995 60.5201 1.31 63.1701C3.31 66.2301 6.19001 67.2601 9.64001 65.6501C10.0284 65.4664 10.3998 65.2489 10.75 65L14.28 62.83L19.67 59.5101L19.54 64.8L17.76 139.49V139.6L17.59 145.46H38.06L38.99 145.52C39.8997 145.593 40.8144 145.572 41.72 145.46H45.26C45.26 145.46 45.83 143.75 46.66 141.53C46.83 141.15 46.99 140.73 47.14 140.29C48.0597 137.787 49.18 135.363 50.49 133.04V132.99C52.7762 129.657 55.8591 126.948 59.4584 125.109C63.0577 123.27 67.0594 122.359 71.1 122.46C80.9 122.46 87.7 127.32 91.79 136.35C92.9025 139.302 93.7492 142.347 94.32 145.45H121.98L122.22 141.82C122.439 140.976 122.569 140.111 122.61 139.24C123.85 116.52 125.36 93.8101 126.83 71.1001L126.89 70.2701C126.89 70.1501 126.89 70.03 126.89 69.91L127.23 66.05L127.83 59.05L133.67 63.05L135.81 64.5101L136.08 64.7001L136.38 64.9001C139.86 67.2701 143.06 66.8401 145.72 63.6001C148.38 60.3601 148.05 56.7301 144.72 53.9201ZM71.26 94.5401C71.26 95.7053 70.7978 96.8229 69.9748 97.6478C69.1518 98.4727 68.0352 98.9374 66.87 98.94H57.21C56.043 98.94 54.9239 98.4765 54.0987 97.6513C53.2736 96.8262 52.81 95.707 52.81 94.5401V84.8801C52.8127 83.7148 53.2774 82.5982 54.1023 81.7752C54.9271 80.9522 56.0448 80.49 57.21 80.4901H66.87C68.0335 80.4927 69.1486 80.9561 69.9713 81.7788C70.794 82.6015 71.2574 83.7166 71.26 84.8801V94.5401ZM71.26 73.5401C71.26 74.7044 70.7975 75.821 69.9742 76.6443C69.1509 77.4675 68.0343 77.9301 66.87 77.9301H57.21C56.6327 77.9314 56.0607 77.8188 55.527 77.5988C54.9932 77.3787 54.5081 77.0556 54.0993 76.6478C53.6906 76.24 53.3664 75.7556 53.1451 75.2224C52.9239 74.6891 52.81 74.1174 52.81 73.5401V63.8801C52.8127 62.7148 53.2774 61.5982 54.1023 60.7752C54.9271 59.9522 56.0448 59.49 57.21 59.4901H66.87C68.0335 59.4927 69.1486 59.9561 69.9713 60.7788C70.794 61.6015 71.2574 62.7166 71.26 63.8801V73.5401ZM94.32 94.5401C94.32 95.707 93.8564 96.8262 93.0313 97.6513C92.2061 98.4765 91.0869 98.94 89.92 98.94H80.26C79.0948 98.9374 77.9782 98.4727 77.1552 97.6478C76.3322 96.8229 75.87 95.7053 75.87 94.5401V84.8801C75.8726 83.7166 76.336 82.6015 77.1587 81.7788C77.9814 80.9561 79.0965 80.4927 80.26 80.4901H89.92C91.0852 80.49 92.2029 80.9522 93.0277 81.7752C93.8526 82.5982 94.3174 83.7148 94.32 84.8801V94.5401ZM94.32 73.5401C94.32 74.1174 94.2061 74.6891 93.9849 75.2224C93.7636 75.7556 93.4394 76.24 93.0307 76.6478C92.622 77.0556 92.1368 77.3787 91.6031 77.5988C91.0693 77.8188 90.4973 77.9314 89.92 77.9301H80.26C79.0957 77.9301 77.9791 77.4675 77.1558 76.6443C76.3325 75.821 75.87 74.7044 75.87 73.5401V63.8801C75.8726 62.7166 76.336 61.6015 77.1587 60.7788C77.9814 59.9561 79.0965 59.4927 80.26 59.4901H89.92C91.0852 59.49 92.2029 59.9522 93.0277 60.7752C93.8526 61.5982 94.3174 62.7148 94.32 63.8801V73.5401Z" fill="#0062A9"/>
</svg>
