<svg xmlns="http://www.w3.org/2000/svg" xmlns:xlink="http://www.w3.org/1999/xlink" viewBox="0 0 599.65 251.2"><defs><style>.cls-1{isolation:isolate;}.cls-2{fill:#8c8c8c;}.cls-10,.cls-11,.cls-12,.cls-17,.cls-18,.cls-2,.cls-27,.cls-28,.cls-29,.cls-3,.cls-30,.cls-31,.cls-4,.cls-5,.cls-7{fill-rule:evenodd;}.cls-2,.cls-3{opacity:0.54;}.cls-3{fill:#a8a8a8;}.cls-21,.cls-4{fill:#0062a9;}.cls-5,.cls-6{fill:#154d57;}.cls-13,.cls-5{opacity:0.3;}.cls-13,.cls-27,.cls-29,.cls-30,.cls-31,.cls-5{mix-blend-mode:multiply;}.cls-7,.cls-8{fill:#f4f4f4;}.cls-9{fill:#2f3a3b;}.cls-10{fill:#dedede;}.cls-11{opacity:0.15;}.cls-12{fill:#7dac3e;}.cls-13{fill:#124b57;}.cls-14{fill:#847c58;}.cls-15{fill:#a49360;}.cls-16{fill:#c6b579;}.cls-17,.cls-19{fill:#454a4d;}.cls-18,.cls-20{fill:#2d3133;}.cls-22{fill:#d8bd76;}.cls-23{fill:#c4aa68;}.cls-24{fill:#e7d691;}.cls-25{fill:#dfe9f2;}.cls-26{fill:#818286;}.cls-27,.cls-29,.cls-30,.cls-31{opacity:0.5;}.cls-27{fill:url(#GradientFill_1);}.cls-28{fill:#545c61;}.cls-29{fill:url(#GradientFill_1-2);}.cls-30{fill:url(#GradientFill_1-3);}.cls-31{fill:url(#GradientFill_1-4);}.cls-32{fill:#f5d198;}.cls-33{fill:#f8c784;}.cls-34{fill:#bde6f8;}.cls-35{fill:url(#linear-gradient);}.cls-36{fill:url(#linear-gradient-2);}.cls-37{fill:#b6e3f7;}.cls-38{fill:url(#linear-gradient-3);}.cls-39{fill:url(#linear-gradient-4);}.cls-40{fill:#96d9f2;}.cls-41{fill:#eef8fd;}.cls-42{fill:none;stroke:#eef8fd;stroke-linecap:round;stroke-linejoin:round;}.cls-43{fill:url(#linear-gradient-5);}.cls-44{fill:#fea;}.cls-45{fill:#ffe888;}.cls-46{fill:#fff5ca;}</style><linearGradient id="GradientFill_1" x1="393.74" y1="219.43" x2="397.91" y2="237.48" gradientUnits="userSpaceOnUse"><stop offset="0" stop-color="#555859"/><stop offset="0.12" stop-color="#5f6263"/><stop offset="0.31" stop-color="#7a7c7d"/><stop offset="0.57" stop-color="#a6a7a8"/><stop offset="0.87" stop-color="#e2e3e3"/><stop offset="1" stop-color="#fff"/></linearGradient><linearGradient id="GradientFill_1-2" x1="352.79" y1="217.21" x2="355.96" y2="237.22" xlink:href="#GradientFill_1"/><linearGradient id="GradientFill_1-3" x1="213.4" y1="204.56" x2="250.43" y2="364.99" xlink:href="#GradientFill_1"/><linearGradient id="GradientFill_1-4" x1="465.1" y1="201.28" x2="507.56" y2="385.18" xlink:href="#GradientFill_1"/><linearGradient id="linear-gradient" x1="303.41" y1="406.42" x2="309.51" y2="406.42" gradientUnits="userSpaceOnUse"><stop offset="0" stop-color="#bde6f8"/><stop offset="1" stop-color="#a1dcf3"/></linearGradient><linearGradient id="linear-gradient-2" x1="295.94" y1="423.75" x2="288.98" y2="396.57" gradientUnits="userSpaceOnUse"><stop offset="0" stop-color="#bde6f8"/><stop offset="1" stop-color="#dcedf9"/></linearGradient><linearGradient id="linear-gradient-3" x1="282.87" y1="424.92" x2="286.66" y2="439.14" gradientUnits="userSpaceOnUse"><stop offset="0" stop-color="#d9f0f7"/><stop offset="1" stop-color="#bde6f8"/></linearGradient><linearGradient id="linear-gradient-4" x1="293.31" y1="427.91" x2="306.15" y2="427.91" xlink:href="#linear-gradient"/><linearGradient id="linear-gradient-5" x1="273.27" y1="416.76" x2="278.01" y2="425.14" xlink:href="#linear-gradient"/></defs><title>مستودع التخزين</title><g class="cls-1"><g id="Layer_1" data-name="Layer 1"><path class="cls-2" d="M28.91,404.4H571.09c15.81,0,28.74,11.63,28.74,25.83h0c0,14.2-12.94,25.83-28.74,25.83H28.91c-15.8,0-28.74-11.63-28.74-25.83h0C.17,416,13.11,404.4,28.91,404.4Z" transform="translate(-0.17 -219.49)"/><path class="cls-3" d="M64,422H536c13.76,0,25,11,25,24.35h0c0,13.39-11.26,24.36-25,24.36H64c-13.75,0-25-11-25-24.36h0C39,433,50.28,422,64,422Z" transform="translate(-0.17 -219.49)"/><polygon class="cls-4" points="107.95 59.35 203.76 5.39 299.58 59.35 299.58 191.38 107.95 191.38 107.95 59.35"/><polygon class="cls-4" points="299.58 59.35 395.39 5.39 491.21 59.35 491.21 191.38 299.58 191.38 299.58 59.35"/><polygon class="cls-5" points="107.95 59.78 201.81 6.63 203.51 5.67 205.22 6.63 299.57 59.8 299.58 59.78 393.44 6.63 395.15 5.67 396.85 6.63 491.21 59.81 491.21 65.02 486.32 65.02 395.15 13.67 299.58 67.58 203.51 13.67 112.34 65.02 107.95 65.02 107.95 59.78"/><rect class="cls-6" x="136.12" y="93.65" width="135.28" height="89.66"/><rect class="cls-6" x="327.76" y="93.65" width="135.28" height="89.66"/><polygon class="cls-7" points="98.95 59.35 202.06 0.96 203.76 0 205.47 0.96 299.81 54.13 393.69 0.96 395.39 0 397.1 0.96 500.7 59.35 486.57 59.35 395.39 8 299.58 61.91 203.76 8 112.59 59.35 98.95 59.35"/><rect class="cls-8" x="140.21" y="96.36" width="127.1" height="84.24"/><rect class="cls-9" x="331.85" y="96.36" width="127.1" height="84.24"/><path class="cls-10" d="M149.67,324.72h50.49V343H149.67V324.72Zm50.49,23.85v18.8H149.67v-18.8Zm0,24.39v18.27H149.67V373Zm7.55-48.24H258.2V343H207.71V324.72Zm50.49,23.85v18.8H207.71v-18.8Zm0,24.39v18.27H207.71V373Z" transform="translate(-0.17 -219.49)"/><polygon class="cls-11" points="140.21 96.43 224.39 180.6 267.31 180.6 267.31 96.36 140.21 96.36 140.21 96.43"/><polygon class="cls-12" points="166.53 62.99 203.76 50.33 241 62.99 241 62.99 241 62.99 241 76.69 166.53 76.69 166.53 62.99 166.53 62.99 166.53 62.99"/><polygon class="cls-12" points="358.16 62.99 395.39 50.33 432.63 62.99 432.63 62.99 432.63 62.99 432.63 76.69 358.16 76.69 358.16 62.99 358.16 62.99 358.16 62.99"/><path class="cls-7" d="M163.44,280.15l40.49-13.77,40.5,13.77v19.29h-81V280.15Zm42.61-9.61v25.64h35.12v-13.7h0l-35.12-11.94Zm-4.23,25.64V270.54L166.7,282.48h0v13.7Z" transform="translate(-0.17 -219.49)"/><path class="cls-7" d="M355.07,280.15l40.5-13.77,40.49,13.77v19.29h-81V280.15Zm42.61-9.61v25.64h35.13v-13.7h0l-35.12-11.94Zm-4.23,25.64V270.54l-35.12,11.94h0v13.7Z" transform="translate(-0.17 -219.49)"/><rect class="cls-13" x="163.27" y="79.95" width="80.99" height="4.37"/><rect class="cls-13" x="354.9" y="79.95" width="81" height="4.37"/><rect class="cls-14" x="356.3" y="125.42" width="22.35" height="18.97"/><rect class="cls-15" x="356.3" y="125.43" width="22.39" height="4.18"/><rect class="cls-16" x="355.75" y="125.13" width="23.46" height="3.36"/><rect class="cls-14" x="332.4" y="125.42" width="22.35" height="18.97"/><rect class="cls-15" x="332.4" y="125.43" width="22.39" height="4.18"/><rect class="cls-16" x="331.85" y="125.13" width="23.46" height="3.36"/><rect class="cls-14" x="356.3" y="143.72" width="22.35" height="18.96"/><rect class="cls-15" x="356.3" y="143.72" width="22.39" height="4.18"/><rect class="cls-16" x="355.75" y="143.42" width="23.46" height="3.36"/><rect class="cls-14" x="332.4" y="143.72" width="22.35" height="18.96"/><rect class="cls-15" x="332.4" y="143.72" width="22.39" height="4.18"/><rect class="cls-16" x="331.85" y="143.42" width="23.46" height="3.36"/><rect class="cls-14" x="356.3" y="161.64" width="22.35" height="18.96"/><rect class="cls-15" x="356.3" y="161.64" width="22.39" height="4.18"/><rect class="cls-16" x="355.75" y="161.34" width="23.46" height="3.36"/><rect class="cls-14" x="332.4" y="161.64" width="22.35" height="18.96"/><rect class="cls-15" x="332.4" y="161.64" width="22.39" height="4.18"/><rect class="cls-16" x="331.85" y="161.34" width="23.46" height="3.36"/><rect class="cls-8" x="331.85" y="96.36" width="127.1" height="27.03"/><path class="cls-10" d="M341.3,320.07h50.49v18.26H341.3V320.07Zm58,0h50.5v18.26h-50.5Z" transform="translate(-0.17 -219.49)"/><polygon class="cls-11" points="331.85 96.43 358.81 123.39 458.94 123.39 458.94 96.36 331.85 96.36 331.85 96.43"/><rect class="cls-14" x="436.04" y="125.42" width="22.35" height="18.97"/><rect class="cls-15" x="436.04" y="125.43" width="22.39" height="4.18"/><rect class="cls-16" x="435.49" y="125.13" width="23.46" height="3.36"/><rect class="cls-14" x="436.04" y="143.72" width="22.35" height="18.96"/><rect class="cls-15" x="436.04" y="143.72" width="22.39" height="4.18"/><rect class="cls-16" x="435.49" y="143.42" width="23.46" height="3.36"/><rect class="cls-14" x="436.04" y="161.64" width="22.35" height="18.96"/><rect class="cls-15" x="436.04" y="161.64" width="22.39" height="4.18"/><rect class="cls-16" x="435.49" y="161.34" width="23.46" height="3.36"/><path class="cls-17" d="M358.77,425l-4.37-13a3,3,0,0,0-3.8-1.9h0a3,3,0,0,0-1.89,3.81l4.37,13a3,3,0,0,0,3.8,1.89h0A3,3,0,0,0,358.77,425Z" transform="translate(-0.17 -219.49)"/><polygon class="cls-18" points="391.83 222.66 391.83 173.7 387.21 173.7 387.21 222.66 388.81 222.66 388.81 191.23 390.24 191.23 390.24 222.66 391.83 222.66"/><rect class="cls-19" x="385.91" y="209.03" width="8.89" height="13.63"/><rect class="cls-20" x="349.77" y="205" width="21.58" height="7.7" rx="3.85" ry="3.85"/><path class="cls-18" d="M384.46,423.27l2.62,9.2-11.75.07C378.93,427.18,379.24,427.06,384.46,423.27Z" transform="translate(-0.17 -219.49)"/><path class="cls-18" d="M382.81,426.05l-6.95-7.66a1.18,1.18,0,0,0-1.7-.07h0a1.22,1.22,0,0,0-.07,1.71l7,7.65a1.19,1.19,0,0,0,1.7.07h0A1.21,1.21,0,0,0,382.81,426.05Z" transform="translate(-0.17 -219.49)"/><path class="cls-17" d="M369.63,419.48l6.32-5.85a1.89,1.89,0,0,1,2.66.1h0a1.9,1.9,0,0,1-.1,2.66l-6.32,5.85a1.89,1.89,0,0,1-2.66-.1h0A1.9,1.9,0,0,1,369.63,419.48Z" transform="translate(-0.17 -219.49)"/><path class="cls-17" d="M373.24,393.67H350.33a3.22,3.22,0,0,0-3.2,3.21V439a3.21,3.21,0,0,0,3.2,3.2h36.35c1.76,0,3.74-1.53,3.21-3.2l-13.45-42.15c-.53-1.68-1.44-3.21-3.2-3.21Zm-.66,2.16c1.59,0,2.41,1.39,2.89,2.92l12.13,38.41c.48,1.53-1.3,2.92-2.89,2.92H351.92a2.92,2.92,0,0,1-2.89-2.92V398.75a2.91,2.91,0,0,1,2.89-2.92Z" transform="translate(-0.17 -219.49)"/><path class="cls-12" d="M347.13,428.7v9.95a3.42,3.42,0,0,0,3.2,3.58h36.35c1.76,0,3.83-1.73,3.21-3.58l-3-8.89-37.52,0A2.43,2.43,0,0,1,347.13,428.7Z" transform="translate(-0.17 -219.49)"/><rect class="cls-21" x="339.85" y="201.8" width="16.95" height="15.89" rx="2.63" ry="2.63"/><path class="cls-4" d="M347.13,435.46v3.19a3.42,3.42,0,0,0,3.2,3.58h36.35c1.76,0,3.83-1.73,3.21-3.58l-1.07-3.19Z" transform="translate(-0.17 -219.49)"/><path class="cls-12" d="M348.5,421.29h-5.85a2.63,2.63,0,0,0-2.63,2.63v10.63a2.63,2.63,0,0,0,2.63,2.62h5.85Z" transform="translate(-0.17 -219.49)"/><rect class="cls-22" x="391.71" y="169.23" width="24.97" height="21.19"/><rect class="cls-23" x="391.71" y="169.23" width="25.01" height="4.67"/><rect class="cls-24" x="391.09" y="168.89" width="26.21" height="3.75"/><rect class="cls-25" x="406.74" y="174.38" width="8.51" height="3.86"/><rect class="cls-26" x="407.36" y="174.87" width="0.9" height="2.87"/><rect class="cls-26" x="408.97" y="174.87" width="0.9" height="2.87"/><rect class="cls-26" x="410.64" y="174.87" width="0.9" height="2.87"/><rect class="cls-26" x="412.17" y="174.87" width="0.9" height="2.87"/><rect class="cls-26" x="413.72" y="174.87" width="0.9" height="2.87"/><polygon class="cls-17" points="417.71 190.39 387.21 190.39 387.21 192.59 422.35 192.59 417.71 190.39"/><polygon class="cls-27" points="379.8 217.34 382.82 214.21 387.39 212.62 392.74 213.19 396.25 215.23 411.42 230.28 390.25 230.28 378.32 218.36 379.8 217.34"/><path class="cls-18" d="M388.48,449.77a7.81,7.81,0,1,0-7.81-7.81A7.82,7.82,0,0,0,388.48,449.77Z" transform="translate(-0.17 -219.49)"/><path class="cls-28" d="M388.48,445A3.08,3.08,0,1,0,385.4,442,3.08,3.08,0,0,0,388.48,445Z" transform="translate(-0.17 -219.49)"/><path class="cls-18" d="M388.48,431.18a10.79,10.79,0,0,1,10,6.65h-1.91a9.05,9.05,0,0,0-16.11,0h-1.9A10.79,10.79,0,0,1,388.48,431.18Z" transform="translate(-0.17 -219.49)"/><polygon class="cls-29" points="338.92 217.76 341.94 214.62 346.5 213.04 351.85 213.6 355.36 215.65 370.53 230.7 349.37 230.7 337.44 218.77 338.92 217.76"/><circle class="cls-20" cx="347.59" cy="442.38" r="7.81" transform="translate(-67.05 -157.55) rotate(-9.29)"/><path class="cls-28" d="M347.59,445.46a3.08,3.08,0,1,0-3.08-3.08A3.08,3.08,0,0,0,347.59,445.46Z" transform="translate(-0.17 -219.49)"/><path class="cls-18" d="M347.59,431.6a10.79,10.79,0,0,1,10,6.65h-1.9a9.06,9.06,0,0,0-16.12,0h-1.9A10.79,10.79,0,0,1,347.59,431.6Z" transform="translate(-0.17 -219.49)"/><polygon class="cls-30" points="228.69 225.12 174.82 225.83 172.5 233.93 172.54 233.96 267.86 233.96 232.89 199.07 228.69 225.12"/><rect class="cls-22" x="172.47" y="223.76" width="10.2" height="10.2"/><rect class="cls-23" x="172.47" y="223.76" width="10.2" height="5.91"/><rect class="cls-22" x="222.86" y="223.76" width="10.21" height="10.2"/><rect class="cls-23" x="222.86" y="223.76" width="10.21" height="5.91"/><rect class="cls-24" x="172.47" y="223.76" width="60.59" height="4.35"/><rect class="cls-22" x="203.73" y="199.46" width="28.45" height="24.14"/><rect class="cls-23" x="203.73" y="199.46" width="28.5" height="5.32"/><rect class="cls-24" x="203.03" y="199.08" width="29.86" height="4.28"/><rect class="cls-25" x="220.86" y="205.33" width="9.69" height="4.4"/><rect class="cls-26" x="221.56" y="205.9" width="1.03" height="3.27"/><rect class="cls-26" x="223.4" y="205.9" width="1.03" height="3.27"/><rect class="cls-26" x="225.3" y="205.9" width="1.03" height="3.27"/><rect class="cls-26" x="227.04" y="205.9" width="1.03" height="3.27"/><rect class="cls-26" x="228.81" y="205.9" width="1.03" height="3.27"/><rect class="cls-22" x="173.31" y="199.46" width="28.45" height="24.14"/><rect class="cls-23" x="173.31" y="199.46" width="28.5" height="5.32"/><rect class="cls-24" x="172.61" y="199.08" width="29.86" height="4.28"/><rect class="cls-25" x="190.43" y="205.33" width="9.69" height="4.4"/><rect class="cls-26" x="191.14" y="205.9" width="1.03" height="3.27"/><rect class="cls-26" x="192.98" y="205.9" width="1.03" height="3.27"/><rect class="cls-26" x="194.88" y="205.9" width="1.03" height="3.27"/><rect class="cls-26" x="196.62" y="205.9" width="1.03" height="3.27"/><rect class="cls-26" x="198.38" y="205.9" width="1.03" height="3.27"/><rect class="cls-22" x="203.73" y="174.72" width="28.45" height="24.14"/><rect class="cls-23" x="203.73" y="174.72" width="28.5" height="5.32"/><rect class="cls-24" x="203.03" y="174.34" width="29.86" height="4.28"/><rect class="cls-25" x="220.86" y="180.59" width="9.69" height="4.4"/><rect class="cls-26" x="221.56" y="181.15" width="1.03" height="3.27"/><rect class="cls-26" x="223.4" y="181.15" width="1.03" height="3.27"/><rect class="cls-26" x="225.3" y="181.15" width="1.03" height="3.27"/><rect class="cls-26" x="227.04" y="181.15" width="1.03" height="3.27"/><rect class="cls-26" x="228.81" y="181.15" width="1.03" height="3.27"/><rect class="cls-22" x="173.31" y="174.72" width="28.45" height="24.14"/><rect class="cls-23" x="173.31" y="174.72" width="28.5" height="5.32"/><rect class="cls-24" x="172.61" y="174.34" width="29.86" height="4.28"/><rect class="cls-25" x="190.43" y="180.59" width="9.69" height="4.4"/><rect class="cls-26" x="191.14" y="181.15" width="1.03" height="3.27"/><rect class="cls-26" x="192.98" y="181.15" width="1.03" height="3.27"/><rect class="cls-26" x="194.88" y="181.15" width="1.03" height="3.27"/><rect class="cls-26" x="196.62" y="181.15" width="1.03" height="3.27"/><rect class="cls-26" x="198.38" y="181.15" width="1.03" height="3.27"/><polygon class="cls-31" points="483.12 220.4 412.02 221.34 408.95 230.63 409 230.68 534.82 230.68 499.84 195.78 493 203.38 483.12 220.4"/><rect class="cls-22" x="408.95" y="220.48" width="10.2" height="10.2"/><rect class="cls-23" x="408.95" y="220.48" width="10.2" height="5.91"/><rect class="cls-22" x="489.73" y="220.48" width="10.21" height="10.2"/><rect class="cls-23" x="489.73" y="220.48" width="10.21" height="5.91"/><rect class="cls-24" x="408.95" y="220.47" width="90.99" height="4.35"/><rect class="cls-22" x="440.22" y="196.18" width="28.45" height="24.14"/><rect class="cls-23" x="440.22" y="196.18" width="28.5" height="5.32"/><rect class="cls-24" x="439.51" y="195.8" width="29.86" height="4.28"/><rect class="cls-25" x="457.34" y="202.05" width="9.69" height="4.4"/><rect class="cls-26" x="458.05" y="202.61" width="1.03" height="3.27"/><rect class="cls-26" x="459.89" y="202.61" width="1.03" height="3.27"/><rect class="cls-26" x="461.79" y="202.61" width="1.03" height="3.27"/><rect class="cls-26" x="463.53" y="202.61" width="1.03" height="3.27"/><rect class="cls-26" x="465.29" y="202.61" width="1.03" height="3.27"/><rect class="cls-22" x="470.64" y="196.18" width="28.45" height="24.14"/><rect class="cls-23" x="470.64" y="196.18" width="28.5" height="5.32"/><rect class="cls-24" x="469.94" y="195.8" width="29.86" height="4.28"/><rect class="cls-25" x="487.77" y="202.05" width="9.69" height="4.4"/><rect class="cls-26" x="488.48" y="202.61" width="1.03" height="3.27"/><rect class="cls-26" x="490.32" y="202.61" width="1.03" height="3.27"/><rect class="cls-26" x="492.21" y="202.61" width="1.03" height="3.27"/><rect class="cls-26" x="493.96" y="202.61" width="1.03" height="3.27"/><rect class="cls-26" x="495.72" y="202.61" width="1.03" height="3.27"/><rect class="cls-22" x="409.79" y="196.18" width="28.45" height="24.14"/><rect class="cls-23" x="409.79" y="196.18" width="28.5" height="5.32"/><rect class="cls-24" x="409.09" y="195.8" width="29.86" height="4.28"/><rect class="cls-25" x="426.91" y="202.05" width="9.69" height="4.4"/><rect class="cls-26" x="427.62" y="202.61" width="1.03" height="3.27"/><rect class="cls-26" x="429.46" y="202.61" width="1.03" height="3.27"/><rect class="cls-26" x="431.36" y="202.61" width="1.03" height="3.27"/><rect class="cls-26" x="433.1" y="202.61" width="1.03" height="3.27"/><rect class="cls-26" x="434.87" y="202.61" width="1.03" height="3.27"/><rect class="cls-22" x="440.22" y="171.44" width="28.45" height="24.14"/><rect class="cls-23" x="440.22" y="171.44" width="28.5" height="5.32"/><rect class="cls-24" x="439.51" y="171.06" width="29.86" height="4.28"/><rect class="cls-25" x="457.34" y="177.31" width="9.69" height="4.4"/><rect class="cls-26" x="458.05" y="177.87" width="1.03" height="3.27"/><rect class="cls-26" x="459.89" y="177.87" width="1.03" height="3.27"/><rect class="cls-26" x="461.79" y="177.87" width="1.03" height="3.27"/><rect class="cls-26" x="463.53" y="177.87" width="1.03" height="3.27"/><rect class="cls-26" x="465.29" y="177.87" width="1.03" height="3.27"/><rect class="cls-22" x="470.64" y="171.44" width="28.45" height="24.14"/><rect class="cls-23" x="470.64" y="171.44" width="28.5" height="5.32"/><rect class="cls-24" x="469.94" y="171.06" width="29.86" height="4.28"/><rect class="cls-25" x="487.77" y="177.31" width="9.69" height="4.4"/><rect class="cls-26" x="488.48" y="177.87" width="1.03" height="3.27"/><rect class="cls-26" x="490.32" y="177.87" width="1.03" height="3.27"/><rect class="cls-26" x="492.21" y="177.87" width="1.03" height="3.27"/><rect class="cls-26" x="493.96" y="177.87" width="1.03" height="3.27"/><rect class="cls-26" x="495.72" y="177.87" width="1.03" height="3.27"/><polygon class="cls-32" points="283.63 218.97 283.34 220.99 282.91 223.86 281.75 223.87 281.75 219.49 283.63 218.97"/><path class="cls-33" d="M283.81,438.46l-.29,2c-.57.11-1.19.23-1.6.33V439Z" transform="translate(-0.17 -219.49)"/><polygon class="cls-34" points="305.98 195.86 305.98 195.86 305.98 195.86 305.98 195.86"/><path class="cls-35" d="M306.15,415.35l3.36-15.53c-.28-.87-3.36-2.94-3.36-2.94L303.41,416Z" transform="translate(-0.17 -219.49)"/><polygon class="cls-34" points="305.68 197.23 305.98 195.86 305.62 197.23 305.68 197.23"/><polygon class="cls-34" points="273.82 207.92 273.11 207.88 273.11 207.88 271.6 207.79 273.82 207.92 273.82 207.92"/><path class="cls-34" d="M294.27,428.78h0Z" transform="translate(-0.17 -219.49)"/><path class="cls-36" d="M281.79,396c-4.68.89-4.44,6-4.2,9.66.11,1.78.57,6.73,1,11.32l.86,9.1v.05l14,.54h.16c-1-2.75-2.55-7-2.54-7.46,0-.69,2-1.22,2.69-1v-.06l9.6-2.18,2.74-19.09C303.84,396.34,286.47,395.1,281.79,396Z" transform="translate(-0.17 -219.49)"/><path class="cls-34" d="M279.65,426h-.21v.05Z" transform="translate(-0.17 -219.49)"/><path class="cls-34" d="M293.54,426.66l0-.05h0l0,.05Z" transform="translate(-0.17 -219.49)"/><path class="cls-37" d="M293.54,428.71l-.41-2s-13.68-.56-13.68-.59l-5.51,1.15c0,.11.05.18.05.19h0Z" transform="translate(-0.17 -219.49)"/><path class="cls-38" d="M295.83,428.62c0,.1,0,.16,0,.16l0,.08-2.48,11.61-1.81-.06c-3.81-.17-12.62-.65-16.2-.84l-1.52-.08h0a45.53,45.53,0,0,1-1.2-5.83,2,2,0,0,0,0-.24,43.31,43.31,0,0,1-.73-6.14s0,0,0,0l-.11-.25c-.88-1.81-4.51-6.9-4.14-7.68s2.49-1.19,2.49-1.19a10.15,10.15,0,0,1,2.09,3.16,34.63,34.63,0,0,1,1.78,5.64c0,.09,0,.16.06.23s0,.05,0,.08l0,.16a0,0,0,0,0,0,0h0l18.79,1.18.75.05,0-.18c-.41-1.46-2.49-8.92-2.37-9.36.18-.66,2-1.12,2.7-.89a.35.35,0,0,1,.14.06c.55.35,1.74,1.82,2.33,4.66C296.53,424.14,296,427.82,295.83,428.62Z" transform="translate(-0.17 -219.49)"/><path class="cls-39" d="M306.15,415.35l-.36,1.37L303.13,427l-.07.25-.26,1h0l-1,4.47-.05.25-1.2,5.51-7.27,2c.06,0,2.37-11,2.49-11.57a.5.5,0,0,1,0-.12.59.59,0,0,1,0-.13c.11-.75.68-4.49.42-5.72-.59-2.84-1.78-4.31-2.33-4.66a.35.35,0,0,0-.14-.06v-.06L303.4,416Z" transform="translate(-0.17 -219.49)"/><path class="cls-34" d="M296.3,428.65v0h0Z" transform="translate(-0.17 -219.49)"/><path class="cls-34" d="M295.82,428.73v0h0v0Z" transform="translate(-0.17 -219.49)"/><path class="cls-34" d="M275.3,439.57l-1.52-.08Z" transform="translate(-0.17 -219.49)"/><path class="cls-34" d="M293.31,440.47l-1.81-.06C292.6,440.46,293.29,440.49,293.31,440.47Z" transform="translate(-0.17 -219.49)"/><path class="cls-40" d="M283.79,407.8c.53,0,.58-1.5,0-1.5S283.25,407.84,283.79,407.8Z" transform="translate(-0.17 -219.49)"/><path class="cls-40" d="M291.78,407.8c.59,0,.79-1.62,0-1.7S291.19,407.84,291.78,407.8Z" transform="translate(-0.17 -219.49)"/><path class="cls-40" d="M299.67,407.8c-.63,0-.55-1.78.2-1.7S300.3,407.84,299.67,407.8Z" transform="translate(-0.17 -219.49)"/><path class="cls-32" d="M275.61,439.59v3.81h-.9l-.71-2.9-.25-1h0l1.52.08Z" transform="translate(-0.17 -219.49)"/><path class="cls-33" d="M275.61,439.59v1.77c-.51-.29-1.22-.68-1.61-.86l-.25-1h0l1.52.08Z" transform="translate(-0.17 -219.49)"/><path class="cls-32" d="M293.31,440.47l-.25,1.41-.26,1.52h-1l-.2-1.83-.13-1.16h0C292.6,440.46,293.29,440.49,293.31,440.47Z" transform="translate(-0.17 -219.49)"/><path class="cls-33" d="M293.31,440.47l-.25,1.41c-.41-.06-1-.2-1.44-.31l-.13-1.16h0C292.6,440.46,293.29,440.49,293.31,440.47Z" transform="translate(-0.17 -219.49)"/><polygon class="cls-32" points="300.41 218.97 300.11 220.99 299.69 223.91 298.52 223.91 298.52 219.49 300.41 218.97"/><path class="cls-33" d="M300.58,438.46l-.29,2c-.57.11-1.19.23-1.59.33V439Z" transform="translate(-0.17 -219.49)"/><path class="cls-41" d="M294.65,434.2l0,.24-22.05-.78a2,2,0,0,0,0-.24Z" transform="translate(-0.17 -219.49)"/><path class="cls-41" d="M301.83,432.7l-.05.25-7.13,1.46c0-.09,0-.17.05-.25Z" transform="translate(-0.17 -219.49)"/><path class="cls-42" d="M270.74,422.76c.92-.3-.5-4.06-1.73-3.58S269.81,423.07,270.74,422.76Z" transform="translate(-0.17 -219.49)"/><path class="cls-42" d="M294,422.5c.82-.3-.2-3.57-1.31-3.36S293.14,422.79,294,422.5Z" transform="translate(-0.17 -219.49)"/><path class="cls-43" d="M279.44,426c-.05-.69-.44-4.71-.85-9v-.08a41.92,41.92,0,0,0-8.58,1.22,10.15,10.15,0,0,1,2.09,3.16,34.63,34.63,0,0,1,1.78,5.64l.1.3,0,.07,5.46-1.21Z" transform="translate(-0.17 -219.49)"/><path class="cls-41" d="M303.13,427l-.07.25-7.23,1.66h0a.5.5,0,0,1,0-.12.59.59,0,0,1,0-.13Z" transform="translate(-0.17 -219.49)"/><path class="cls-41" d="M274,427.38l-2.22-.15-.11-.25,2.28.16s0,.05,0,.08Z" transform="translate(-0.17 -219.49)"/><path class="cls-41" d="M295.83,428.62c0,.1,0,.16,0,.16l0,.08-2.27-.22,0-.18Z" transform="translate(-0.17 -219.49)"/><path class="cls-32" d="M314.9,441.88a.29.29,0,0,1-.26-.31V372.21a.26.26,0,1,1,.52,0v69.36A.29.29,0,0,1,314.9,441.88Z" transform="translate(-0.17 -219.49)"/><polygon class="cls-40" points="309.31 223.73 310.18 221.52 319.06 221.52 320.14 223.73 309.31 223.73"/><path class="cls-44" d="M322.2,374.27l-14.54.05c0-.16.09-1.11.26-2.63.38-3.45,1.15-9.83,2.08-16.44l9.08,0,1,6.27Z" transform="translate(-0.17 -219.49)"/><path class="cls-45" d="M322.2,374.27l-14.54.05c0-.16.09-1.11.26-2.63,1.71.79,4.6,1.72,7,.92,2.58-.85,4.37-7.29,5.19-11.11Z" transform="translate(-0.17 -219.49)"/><polygon class="cls-46" points="311.17 137.38 313.17 137.37 311.87 149.47 310.45 149.47 311.17 137.38"/></g></g></svg>